<?xml version="1.0" encoding="utf-8"?>
<svg viewBox="387.10003662109375 580.7999877929688 627.1000366210938 119.20001220703125" width="627.1000366210938" height="119.20001220703125" xmlns="http://www.w3.org/2000/svg"><g transform="matrix(1, 0, 0, 1, 0, 2.842170943040401e-14)"><g transform="matrix(1, 0, 0, 1, 0, 2.842170943040401e-14)">
	<path d="M 619.200012 580.799988 H 670.500011 V 620.299988 H 619.200012 V 580.799988 Z" class="st7" style="fill: rgb(222, 223, 224);"/>
	<path d="M 625 591.900024 H 633.3 V 597.800025 H 625 V 591.900024 Z" class="st11" style="fill: rgb(35, 31, 32);"/>
	<path d="M 641.200012 591.900024 H 649.500012 V 597.800025 H 641.200012 V 591.900024 Z" class="st11" style="fill: rgb(35, 31, 32);"/>
	<path d="M 657.5 591.900024 H 665.8 V 597.800025 H 657.5 V 591.900024 Z" class="st11" style="fill: rgb(35, 31, 32);"/>
	<path d="M 625 604.5 H 633.3 V 610.4 H 625 V 604.5 Z" class="st11" style="fill: rgb(35, 31, 32);"/>
	<path d="M 641.200012 604.5 H 649.500012 V 610.4 H 641.200012 V 604.5 Z" class="st11" style="fill: rgb(35, 31, 32);"/>
	<path d="M 657.5 604.5 H 665.8 V 610.4 H 657.5 V 604.5 Z" class="st11" style="fill: rgb(35, 31, 32);"/>
	<path d="M 416.100006 613.900024 H 441.600006 V 626.300024 H 416.100006 V 613.900024 Z" class="st4" style="fill: rgb(241, 93, 70);"/>
	<path d="M 416.100006 628.900024 H 441.600006 V 641.300024 H 416.100006 V 628.900024 Z" class="st4" style="fill: rgb(241, 93, 70);"/>
	<path d="M 445 613.900024 H 470.5 V 626.300024 H 445 V 613.900024 Z" class="st4" style="fill: rgb(241, 93, 70);"/>
	<path d="M 445 628.900024 H 470.5 V 641.300024 H 445 V 628.900024 Z" class="st4" style="fill: rgb(241, 93, 70);"/>
	<path d="M 416.100006 598.700012 H 441.600006 V 611.100012 H 416.100006 V 598.700012 Z" class="st4" style="fill: rgb(241, 93, 70);"/>
	<path d="M 445 598.700012 H 470.5 V 611.100012 H 445 V 598.700012 Z" class="st4" style="fill: rgb(241, 93, 70);"/>
	<path d="M 387.100006 613.900024 H 412.600006 V 626.300024 H 387.100006 V 613.900024 Z" class="st9" style="fill: rgb(56, 159, 146);"/>
	<path d="M 387.100006 628.900024 H 412.600006 V 641.300024 H 387.100006 V 628.900024 Z" class="st9" style="fill: rgb(56, 159, 146);"/>
	<path d="M 674.099976 613.900024 H 700.599976 V 626.300024 H 674.099976 V 613.900024 Z" class="st1" style="fill: rgb(80, 73, 65);"/>
	<path d="M 674.099976 628.900024 H 700.599976 V 641.300024 H 674.099976 V 628.900024 Z" class="st1" style="fill: rgb(80, 73, 65);"/>
	<path d="M 704.099976 613.900024 H 730.599976 V 626.300024 H 704.099976 V 613.900024 Z" class="st9" style="fill: rgb(56, 159, 146);"/>
	<path d="M 704.099976 628.900024 H 730.599976 V 641.300024 H 704.099976 V 628.900024 Z" class="st9" style="fill: rgb(56, 159, 146);"/>
	<path d="M 734.200012 613.900024 H 760.700012 V 626.300024 H 734.200012 V 613.900024 Z" class="st9" style="fill: rgb(56, 159, 146);"/>
	<path d="M 734.200012 628.900024 H 760.700012 V 641.300024 H 734.200012 V 628.900024 Z" class="st9" style="fill: rgb(56, 159, 146);"/>
	<path d="M 764.200012 613.900024 H 790.700012 V 626.300024 H 764.200012 V 613.900024 Z" class="st9" style="fill: rgb(56, 159, 146);"/>
	<path d="M 764.200012 628.900024 H 790.700012 V 641.300024 H 764.200012 V 628.900024 Z" class="st9" style="fill: rgb(56, 159, 146);"/>
	<path d="M 794.200012 613.900024 H 820.700012 V 626.300024 H 794.200012 V 613.900024 Z" class="st4" style="fill: rgb(241, 93, 70);"/>
	<path d="M 794.200012 628.900024 H 820.700012 V 641.300024 H 794.200012 V 628.900024 Z" class="st4" style="fill: rgb(241, 93, 70);"/>
	<path d="M 824.299988 613.900024 H 850.799988 V 626.300024 H 824.299988 V 613.900024 Z" class="st4" style="fill: rgb(241, 93, 70);"/>
	<path d="M 824.299988 628.900024 H 850.799988 V 641.300024 H 824.299988 V 628.900024 Z" class="st4" style="fill: rgb(241, 93, 70);"/>
	<path d="M 854.299988 613.900024 H 880.799988 V 626.300024 H 854.299988 V 613.900024 Z" class="st4" style="fill: rgb(241, 93, 70);"/>
	<path d="M 854.299988 628.900024 H 880.799988 V 641.300024 H 854.299988 V 628.900024 Z" class="st4" style="fill: rgb(241, 93, 70);"/>
	<path d="M 884.299988 613.900024 H 910.799988 V 626.300024 H 884.299988 V 613.900024 Z" class="st1" style="fill: rgb(80, 73, 65);"/>
	<path d="M 884.299988 628.900024 H 910.799988 V 641.300024 H 884.299988 V 628.900024 Z" class="st1" style="fill: rgb(80, 73, 65);"/>
	<path d="M 914.400024 613.900024 H 940.900024 V 626.300024 H 914.400024 V 613.900024 Z" class="st1" style="fill: rgb(80, 73, 65);"/>
	<path d="M 914.400024 628.900024 H 940.900024 V 641.300024 H 914.400024 V 628.900024 Z" class="st1" style="fill: rgb(80, 73, 65);"/>
	<path d="M 944.400024 613.900024 H 970.900024 V 626.300024 H 944.400024 V 613.900024 Z" class="st9" style="fill: rgb(56, 159, 146);"/>
	<path d="M 944.400024 628.900024 H 970.900024 V 641.300024 H 944.400024 V 628.900024 Z" class="st9" style="fill: rgb(56, 159, 146);"/>
	<path d="M 974.400024 613.900024 H 1000.900024 V 626.300024 H 974.400024 V 613.900024 Z" class="st9" style="fill: rgb(56, 159, 146);"/>
	<path d="M 974.400024 628.900024 H 1000.900024 V 641.300024 H 974.400024 V 628.900024 Z" class="st9" style="fill: rgb(56, 159, 146);"/>
	<path d="M 560.700012 613.900024 H 586.200012 V 626.300024 H 560.700012 V 613.900024 Z" class="st1" style="fill: rgb(80, 73, 65);"/>
	<path d="M 560.700012 628.900024 H 586.200012 V 641.300024 H 560.700012 V 628.900024 Z" class="st1" style="fill: rgb(80, 73, 65);"/>
	<path d="M 589.599976 613.900024 H 615.099976 V 626.300024 H 589.599976 V 613.900024 Z" class="st1" style="fill: rgb(80, 73, 65);"/>
	<path d="M 589.599976 628.900024 H 615.099976 V 641.300024 H 589.599976 V 628.900024 Z" class="st1" style="fill: rgb(80, 73, 65);"/>
	<path d="M 531.799988 613.900024 H 557.299988 V 626.300024 H 531.799988 V 613.900024 Z" class="st4" style="fill: rgb(241, 93, 70);"/>
	<path d="M 531.799988 628.900024 H 557.299988 V 641.300024 H 531.799988 V 628.900024 Z" class="st4" style="fill: rgb(241, 93, 70);"/>
	<path d="M 560.700012 598.700012 H 586.200012 V 611.100012 H 560.700012 V 598.700012 Z" class="st1" style="fill: rgb(80, 73, 65);"/>
	<path d="M 589.599976 598.700012 H 615.099976 V 611.100012 H 589.599976 V 598.700012 Z" class="st1" style="fill: rgb(80, 73, 65);"/>
	<path d="M 531.799988 598.700012 H 557.299988 V 611.100012 H 531.799988 V 598.700012 Z" class="st4" style="fill: rgb(241, 93, 70);"/>
	<path d="M 674.099976 598.700012 H 700.599976 V 611.100012 H 674.099976 V 598.700012 Z" class="st1" style="fill: rgb(80, 73, 65);"/>
	<path d="M 473.899994 613.900024 H 499.399994 V 626.300024 H 473.899994 V 613.900024 Z" class="st1" style="fill: rgb(80, 73, 65);"/>
	<path d="M 473.899994 628.900024 H 499.399994 V 641.300024 H 473.899994 V 628.900024 Z" class="st1" style="fill: rgb(80, 73, 65);"/>
	<path d="M 502.899994 613.900024 H 528.399994 V 626.300024 H 502.899994 V 613.900024 Z" class="st1" style="fill: rgb(80, 73, 65);"/>
	<path d="M 502.899994 628.900024 H 528.399994 V 641.300024 H 502.899994 V 628.900024 Z" class="st1" style="fill: rgb(80, 73, 65);"/>
	<path d="M 473.899994 598.700012 H 499.399994 V 611.100012 H 473.899994 V 598.700012 Z" class="st1" style="fill: rgb(80, 73, 65);"/>
	<path d="M 502.899994 598.700012 H 528.399994 V 611.100012 H 502.899994 V 598.700012 Z" class="st1" style="fill: rgb(80, 73, 65);"/>
	<path d="M 704.099976 598.700012 H 730.599976 V 611.100012 H 704.099976 V 598.700012 Z" class="st9" style="fill: rgb(56, 159, 146);"/>
	<path d="M 734.200012 598.700012 H 760.700012 V 611.100012 H 734.200012 V 598.700012 Z" class="st9" style="fill: rgb(56, 159, 146);"/>
	<path d="M 764.200012 598.700012 H 790.700012 V 611.100012 H 764.200012 V 598.700012 Z" class="st9" style="fill: rgb(56, 159, 146);"/>
	<path d="M 794.200012 598.700012 H 820.700012 V 611.100012 H 794.200012 V 598.700012 Z" class="st4" style="fill: rgb(241, 93, 70);"/>
	<path d="M 824.299988 598.700012 H 850.799988 V 611.100012 H 824.299988 V 598.700012 Z" class="st4" style="fill: rgb(241, 93, 70);"/>
	<path d="M 854.299988 598.700012 H 880.799988 V 611.100012 H 854.299988 V 598.700012 Z" class="st4" style="fill: rgb(241, 93, 70);"/>
	<path d="M 884.299988 598.700012 H 910.799988 V 611.100012 H 884.299988 V 598.700012 Z" class="st1" style="fill: rgb(80, 73, 65);"/>
	<path d="M 914.400024 598.700012 H 940.900024 V 611.100012 H 914.400024 V 598.700012 Z" class="st1" style="fill: rgb(80, 73, 65);"/>
	<path d="M 619.200012 623.200012 H 670.500011 V 641.100012 H 619.200012 V 623.200012 Z" class="st7" style="fill: rgb(222, 223, 224);"/>
	<path class="st4" d="M1011.8,631l-132.1,11.3c0,0-18.5,3.2-52.6,2.6h-440l9.4,22.7h592.9L1011.8,631z" style="fill: rgb(241, 93, 70);"/>
	<path class="st7" d="M436.6,696.1c0,2.2-0.7,3.9-1.6,3.9c-0.9,0-1.6-1.8-1.6-3.9c0-2.2,0.7-3.9,1.6-3.9&#10;&#9;&#9;C435.9,692.1,436.6,693.9,436.6,696.1z" style="fill: rgb(222, 223, 224);"/>
	<g>
		<path class="st7" d="M446.6,692.3h-7.8c-0.7,0-1.3-0.6-1.3-1.3c0-0.7,0.6-1.3,1.3-1.3h7.8c0.7,0,1.3,0.6,1.3,1.3&#10;&#9;&#9;&#9;C447.9,691.8,447.3,692.3,446.6,692.3z" style="fill: rgb(222, 223, 224);"/>
	</g>
	<path d="M 986.299976 647.700012 A 2.7 2.7 0 0 1 983.599976 650.400012 A 2.7 2.7 0 0 1 980.899976 647.700012 A 2.7 2.7 0 0 1 983.599976 645.000012 A 2.7 2.7 0 0 1 986.299976 647.700012 Z" class="st7" style="fill: rgb(222, 223, 224);"/>
	<path class="st12" d="M989.5,667.5H396.5l53,28.5h537.8c0,0,26.9,1.4,26.7-19C1014,677,1013.8,661.8,989.5,667.5z" style="fill: rgb(163, 61, 44);"/>
	<path class="st7" d="M436.6,686.4c0,2.2-0.7,3.9-1.6,3.9c-0.9,0-1.6-1.8-1.6-3.9c0-2.2,0.7-3.9,1.6-3.9&#10;&#9;&#9;C435.9,682.5,436.6,684.2,436.6,686.4z" style="fill: rgb(222, 223, 224);"/>
</g></g></svg>