<svg width="250" height="100" viewBox="0 0 250 100" fill="none" xmlns="http://www.w3.org/2000/svg">
<path d="M225.5 43.7L211.7 44.7C211.7 44.7 199.5 43.8 195.3 43.6C191.1 43.4 185.7 42.8 178.9 39.9C172.1 37 164.3 36.6 164.3 36.6L157.1 46.1H117.5L128.7 32.2L119.3 33.4L91 46.4C53.4 47.7 43.5 52.4 39.9 54.1C23.4 62 24.5 67.9 24.5 86.7H44.1H52.9C55.7 92.3 61.4 96.1 68.1 96.1C74.8 96.1 80.5 92.2 83.3 86.7H92.7H159.4L167.6 86.5C170.4 92.2 176.2 96.1 182.9 96.1C190 96.1 196 91.8 198.6 85.7L206.9 85.5C224.9 86.6 225.3 72.9 225.3 72.9V57.3L219.3 49.3L225.5 43.7Z" fill="white"/>
<path d="M159.3 89.7H92.6C90.9 89.7 89.6 88.4 89.6 86.7C89.6 85 90.9 83.7 92.6 83.7H159.3C161 83.7 162.3 85 162.3 86.7C162.3 88.4 160.9 89.7 159.3 89.7Z" fill="#474D5A"/>
<path d="M44 89.7H24.5C22.8 89.7 21.5 88.4 21.5 86.7C21.5 85.6 21.5 84.5 21.5 83.5C21.4 67.1 21.4 59.7 38.7 51.4C42.5 49.6 52.5 44.8 90.4 43.4L118 30.8C118.3 30.7 118.6 30.6 118.9 30.6L128.3 29.4C129.9 29.2 131.4 30.3 131.7 32C131.9 33.6 130.7 35.1 129.1 35.4L120.1 36.6L92.2 49.1C91.8 49.3 91.5 49.4 91.1 49.4C54 50.7 44.4 55.3 41.2 56.8C27.4 63.4 27.4 67.3 27.4 83.5C27.4 83.6 27.4 83.7 27.4 83.7H44C45.7 83.7 47 85 47 86.7C47 88.4 45.7 89.7 44 89.7Z" fill="#474D5A"/>
<path d="M157 49.2H117.4C115.7 49.2 114.4 47.9 114.4 46.2C114.4 44.5 115.7 43.2 117.4 43.2H155.5L161.8 34.8C162.4 34 163.3 33.6 164.3 33.6C164.6 33.6 172.7 34 179.9 37.1C186.3 39.8 191.2 40.3 195.3 40.5C199.5 40.7 211.6 41.6 211.8 41.6C213.5 41.7 214.7 43.1 214.6 44.8C214.5 46.5 213 47.7 211.4 47.6C211.3 47.6 199.2 46.7 195 46.5C190 46.2 184.5 45.6 177.6 42.6C173.1 40.7 168.1 40 165.6 39.7L159.3 47.9C158.9 48.8 158 49.2 157 49.2Z" fill="#474D5A"/>
<path d="M208.9 88.6C208.2 88.6 207.4 88.6 206.6 88.5C204.9 88.4 203.7 87 203.8 85.3C203.9 83.6 205.3 82.4 207 82.5C212.3 82.8 216.3 81.8 218.9 79.5C221.8 76.9 222.2 73.3 222.2 72.9V58.3L216.8 51C215.9 49.7 216.1 48 217.2 47L223.5 41.5C224.7 40.4 226.6 40.5 227.7 41.8C228.8 43 228.7 44.9 227.4 46L223.2 49.7L227.5 55.5C227.9 56 228.1 56.6 228.1 57.3V73C228.1 73.3 227.9 79.4 222.9 83.9C219.5 87 214.8 88.6 208.9 88.6Z" fill="#474D5A"/>
<path d="M38 67.9C37.8 67.9 37.6 67.9 37.5 67.9H28.8C27.1 67.9 25.8 66.6 25.8 64.9C25.8 63.2 27.1 61.9 28.8 61.9H37.6C37.7 61.9 37.7 61.9 37.8 61.9C37.8 61.9 43.1001 62.1 45.4001 58.7C46.3001 57.3 48.2 57 49.6 57.9C51 58.8 51.3001 60.7 50.4001 62.1C46.7001 67.5 40 67.9 38 67.9Z" fill="#474D5A"/>
<path d="M182.8 99.1C171.8 99.1 162.8 90.1 162.8 79.1C162.8 68.1 171.8 59.1 182.8 59.1C193.8 59.1 202.8 68.1 202.8 79.1C202.8 90.1 193.8 99.1 182.8 99.1ZM182.8 65.1C175.1 65.1 168.8 71.4 168.8 79.1C168.8 86.8 175.1 93.1 182.8 93.1C190.5 93.1 196.8 86.8 196.8 79.1C196.8 71.4 190.5 65.1 182.8 65.1Z" fill="#474D5A"/>
<path d="M182.8 89.1C177.3 89.1 172.8 84.6 172.8 79.1C172.8 73.6 177.3 69.1 182.8 69.1C188.3 69.1 192.8 73.6 192.8 79.1C192.8 84.6 188.3 89.1 182.8 89.1ZM182.8 75.1C180.6 75.1 178.8 76.9 178.8 79.1C178.8 81.3 180.6 83.1 182.8 83.1C185 83.1 186.8 81.3 186.8 79.1C186.8 76.9 185 75.1 182.8 75.1Z" fill="#474D5A"/>
<path d="M68.1 99.1C57.1 99.1 48.1 90.1 48.1 79.1C48.1 68.1 57.1 59.1 68.1 59.1C79.1 59.1 88.1 68.1 88.1 79.1C88.1 90.1 79.1 99.1 68.1 99.1ZM68.1 65.1C60.4 65.1 54.1 71.4 54.1 79.1C54.1 86.8 60.4 93.1 68.1 93.1C75.8 93.1 82.1 86.8 82.1 79.1C82.1 71.4 75.8 65.1 68.1 65.1Z" fill="#474D5A"/>
<path d="M68.1 89.1C62.6 89.1 58.1 84.6 58.1 79.1C58.1 73.6 62.6 69.1 68.1 69.1C73.6 69.1 78.1 73.6 78.1 79.1C78.1 84.6 73.6 89.1 68.1 89.1ZM68.1 75.1C65.9 75.1 64.1 76.9 64.1 79.1C64.1 81.3 65.9 83.1 68.1 83.1C70.3 83.1 72.1 81.3 72.1 79.1C72.1 76.9 70.3 75.1 68.1 75.1Z" fill="#474D5A"/>
</svg>
