<svg width="250" height="100" viewBox="0 0 250 100" fill="none" xmlns="http://www.w3.org/2000/svg">
<path d="M228 60.3C227.1 45.4 226.8 47.3 226.2 44C225.6 40.7 224.5 36.2 219.3 36.2C212.2 36.2 157.8 36.2 157.8 36.2L155.5 67.5C155.5 67.5 155.5 34.2 155.5 25.9C155.5 23.6 155.5 17.2 148.4 17.2C148.4 17.2 128.9 17.2 116.7 17.2C104.5 17.2 98.9 20.7 98.9 20.7L75 38.2C75 38.2 56.3 40.6 39.7 42.4C23.1 44.2 21.5 54.5 21.5 54.5L19 73.3L23.7 80.1H29.8H38C38.5 89 45.9 96.1 55 96.1C64.1 96.1 71.4 89 72 80.1H80.4H159.5L167.9 79.5C168.1 88.7 175.6 96.1 184.9 96.1C194.3 96.1 201.9 88.5 201.9 79.1C201.9 78.5 201.9 77.8 201.8 77.2L209.9 76.6C212.9 76.1 231.2 73.2 231.2 71.2C231.2 69.2 231.2 61.6 231.2 61.6L228 60.3Z" fill="white"/>
<path d="M159.4 83.1H80.3C78.6 83.1 77.3 81.8 77.3 80.1C77.3 78.4 78.6 77.1 80.3 77.1H159.4C161.1 77.1 162.4 78.4 162.4 80.1C162.4 81.8 161.1 83.1 159.4 83.1Z" fill="#474D5A"/>
<path d="M29.8 83.1H23.7C22.7 83.1 21.8 82.6 21.2 81.8L16.4 75C16 74.4 15.8 73.6 15.9 72.9L18.4 54.1C18.5 53.5 20.7 41.5 39.3 39.5C53.8 37.9 70.1 35.9 73.8 35.4L97 18.4C97.1 18.4 97.1 18.3 97.2 18.3C97.5 18.1 103.7 14.3 116.6 14.3H148.3C152.5 14.3 155.7 16.1 157.2 19.4C158.4 21.9 158.4 24.6 158.4 25.9V67.5C158.4 69.2 157.1 70.5 155.4 70.5C153.7 70.5 152.4 69.2 152.4 67.5V25.9C152.4 24.9 152.4 23.2 151.8 22C151.4 21.1 150.7 20.3 148.3 20.3H116.6C106.3 20.3 101.1 23 100.4 23.4L76.8 40.6C76.4 40.9 75.9 41.1 75.4 41.2C75.2 41.2 56.4 43.6 40.1 45.4C26.6 46.9 24.7 54.3 24.5 55L22.1 72.5L25.3 77.1H29.8C31.5 77.1 32.8 78.4 32.8 80.1C32.8 81.8 31.4 83.1 29.8 83.1Z" fill="#474D5A"/>
<path d="M139.5 43.3H90.3C88.6 43.3 87.3 42 87.3 40.3C87.3 38.6 88.6 37.3 90.3 37.3H139.5C140.6 37.3 142.1 37.3 142.1 33.6V25.4C142.1 23.7 143.4 22.4 145.1 22.4C146.8 22.4 148.1 23.7 148.1 25.4V33.6C148.1 39.7 144.9 43.3 139.5 43.3Z" fill="#474D5A"/>
<path d="M122.1 40.8C120.4 40.8 119.1 39.5 119.1 37.8V25.5C119.1 23.8 120.4 22.5 122.1 22.5C123.8 22.5 125.1 23.8 125.1 25.5V37.9C125.1 39.5 123.8 40.8 122.1 40.8Z" fill="#474D5A"/>
<path d="M23.4 60.2C21.9 60.2 20.6 59.1 20.4 57.5C20.2 55.9 21.4 54.4 23 54.2L34.6 52.9C34.9 52.8 37.3 52.1 39.5 49.3C40.5 48 42.4 47.7 43.7 48.7C45 49.7 45.3 51.6 44.3 52.9C40.5 57.8 36.1 58.7 35.6 58.8C35.5 58.8 35.5 58.8 35.4 58.8L23.6 60.1C23.6 60.2 23.5 60.2 23.4 60.2Z" fill="#474D5A"/>
<path d="M209.8 79.7C208.4 79.7 207.1 78.7 206.8 77.2C206.5 75.6 207.6 74 209.2 73.7L210.3 73.5C221.9 71.5 226.3 70.4 228 69.7V63.6L226.7 63C225.7 62.5 225 61.6 225 60.4C224.3 48.9 224 47.7 223.7 46.2C223.6 45.7 223.5 45.2 223.3 44.5C222.5 40.3 221.6 39.1 219.4 39.1H157.9C156.2 39.1 154.9 37.8 154.9 36.1C154.9 34.4 156.2 33.1 157.9 33.1H219.4C227.2 33.1 228.6 40.3 229.2 43.3C229.3 43.9 229.4 44.3 229.5 44.7C229.9 46.5 230.3 47.8 230.9 58.2L232.3 58.9C233.4 59.4 234 60.5 234 61.6V71.2C234 74.4 232 75.9 211.3 79.4L210.3 79.6C210.2 79.7 210 79.7 209.8 79.7Z" fill="#474D5A"/>
<path d="M223.6 59C218.5 59 215.5 56.1 214.4 54.3C214.2 54 214.1 53.6 214 53.3L212.5 44.1C212.2 42.5 213.3 40.9 215 40.7C216.6 40.4 218.2 41.5 218.4 43.2L219.8 51.7C220.3 52.2 221.7 53.3 224.3 53.1C225.9 53 227.4 54.2 227.6 55.8C227.8 57.5 226.5 58.9 224.9 59.1C224.5 59 224 59 223.6 59Z" fill="#474D5A"/>
<path d="M55 99.1C44 99.1 35 90.1 35 79.1C35 68.1 44 59.1 55 59.1C66 59.1 75 68.1 75 79.1C75 90.1 66 99.1 55 99.1ZM55 65.1C47.3 65.1 41 71.4 41 79.1C41 86.8 47.3 93.1 55 93.1C62.7 93.1 69 86.8 69 79.1C69 71.4 62.7 65.1 55 65.1Z" fill="#474D5A"/>
<path d="M55 89.1C49.5 89.1 45 84.6 45 79.1C45 73.6 49.5 69.1 55 69.1C60.5 69.1 65 73.6 65 79.1C65 84.6 60.5 89.1 55 89.1ZM55 75.1C52.8 75.1 51 76.9 51 79.1C51 81.3 52.8 83.1 55 83.1C57.2 83.1 59 81.3 59 79.1C59 76.9 57.2 75.1 55 75.1Z" fill="#474D5A"/>
<path d="M184.8 99.1C173.8 99.1 164.8 90.1 164.8 79.1C164.8 68.1 173.8 59.1 184.8 59.1C195.8 59.1 204.8 68.1 204.8 79.1C204.8 90.1 195.8 99.1 184.8 99.1ZM184.8 65.1C177.1 65.1 170.8 71.4 170.8 79.1C170.8 86.8 177.1 93.1 184.8 93.1C192.5 93.1 198.8 86.8 198.8 79.1C198.8 71.4 192.5 65.1 184.8 65.1Z" fill="#474D5A"/>
<path d="M184.8 89.1C179.3 89.1 174.8 84.6 174.8 79.1C174.8 73.6 179.3 69.1 184.8 69.1C190.3 69.1 194.8 73.6 194.8 79.1C194.8 84.6 190.3 89.1 184.8 89.1ZM184.8 75.1C182.6 75.1 180.8 76.9 180.8 79.1C180.8 81.3 182.6 83.1 184.8 83.1C187 83.1 188.8 81.3 188.8 79.1C188.8 76.9 187 75.1 184.8 75.1Z" fill="#474D5A"/>
</svg>
