<svg width="250" height="100" viewBox="0 0 250 100" fill="none" xmlns="http://www.w3.org/2000/svg">
<path d="M227 53.4C227 53 227 51.3 227 45.9C227 36.6 219.2 35.8 219.2 35.8H208.3C208.3 35.8 187.1 27.3 176.1 23.5C165.1 19.7 153.7 20.1 153.7 20.1C153.7 20.1 142.3 20.1 129.6 20.1C116.9 20.1 108.8 24.1 108.8 24.1L68 41.9C63.3 42.9 34.2 51 30.1 52.3C16.8 56.6 17.7 64.1 17.7 64.1C17.7 64.1 17.7 71 17.7 81.9H31L39.2 81.8C40.5 89.9 47.5 96 56 96C64.5 96 71.6 89.7 72.8 81.5L167.4 80.8C168.3 89.3 175.5 96 184.3 96C193.2 96 200.4 89.2 201.2 80.6L209.1 80.5C229.9 75.3 232.4 71.3 232.4 71.3V58.3L227 53.4Z" fill="white"/>
<path d="M55.9 99.1C44.9 99.1 35.9 90.1 35.9 79.1C35.9 68.1 44.9 59.1 55.9 59.1C66.9 59.1 75.9 68.1 75.9 79.1C75.9 90.1 67 99.1 55.9 99.1ZM55.9 65.1C48.2 65.1 41.9 71.4 41.9 79.1C41.9 86.8 48.2 93.1 55.9 93.1C63.6 93.1 69.9 86.8 69.9 79.1C69.9 71.4 63.6 65.1 55.9 65.1Z" fill="#474D5A"/>
<path d="M55.9 89.1C50.4 89.1 45.9 84.6 45.9 79.1C45.9 73.6 50.4 69.1 55.9 69.1C61.4 69.1 65.9 73.6 65.9 79.1C65.9 84.6 61.4 89.1 55.9 89.1ZM55.9 75.1C53.7 75.1 51.9 76.9 51.9 79.1C51.9 81.3 53.7 83.1 55.9 83.1C58.1 83.1 59.9 81.3 59.9 79.1C59.9 76.9 58.1 75.1 55.9 75.1Z" fill="#474D5A"/>
<path d="M184.2 99.1C173.2 99.1 164.2 90.1 164.2 79.1C164.2 68.1 173.2 59.1 184.2 59.1C195.2 59.1 204.2 68.1 204.2 79.1C204.2 90.1 195.2 99.1 184.2 99.1ZM184.2 65.1C176.5 65.1 170.2 71.4 170.2 79.1C170.2 86.8 176.5 93.1 184.2 93.1C191.9 93.1 198.2 86.8 198.2 79.1C198.2 71.4 191.9 65.1 184.2 65.1Z" fill="#474D5A"/>
<path d="M184.2 89.1C178.7 89.1 174.2 84.6 174.2 79.1C174.2 73.6 178.7 69.1 184.2 69.1C189.7 69.1 194.2 73.6 194.2 79.1C194.2 84.6 189.7 89.1 184.2 89.1ZM184.2 75.1C182 75.1 180.2 76.9 180.2 79.1C180.2 81.3 182 83.1 184.2 83.1C186.4 83.1 188.2 81.3 188.2 79.1C188.2 76.9 186.4 75.1 184.2 75.1Z" fill="#474D5A"/>
<path d="M159.2 85H81C79.3 85 78 83.7 78 82C78 80.3 79.3 79 81 79H159.2C160.9 79 162.2 80.3 162.2 82C162.2 83.7 160.9 85 159.2 85Z" fill="#474D5A"/>
<path d="M31 85H17.7C16 85 14.7 83.7 14.7 82V64.2C14.6 62.5 15 54.1 29.2 49.5C33.3 48.2 61.6 40.4 67.1 39.1L107.6 21.4C108.5 21 116.9 17.2 129.7 17.2H153.8C154.2 17.2 165.8 16.9 177.2 20.8C187.2 24.2 205.7 31.6 209.1 32.9H219.4C219.5 32.9 219.6 32.9 219.7 32.9C223.3 33.3 230.1 36.5 230.1 46V52.2L234.5 56.4C235.1 57 235.4 57.8 235.4 58.6V71.6C235.4 72.2 235.2 72.7 234.9 73.2C233.9 74.7 229.6 78.8 209.8 83.7C208.2 84.1 206.6 83.1 206.2 81.5C205.8 79.9 206.8 78.3 208.4 77.9C222.7 74.3 227.8 71.5 229.4 70.3V59.8L225 55.6C224.4 55 224.1 54.2 224.1 53.4V45.9C224.1 40 220.2 39 219.1 38.8H208.5C208.1 38.8 207.7 38.7 207.4 38.6C207.2 38.5 186.1 30.1 175.3 26.4C165 22.9 154.1 23.1 154 23.1H129.8C117.9 23.1 110.4 26.7 110.3 26.8C110.3 26.8 110.2 26.8 110.2 26.9L69.2 44.7C69 44.8 68.8 44.8 68.6 44.9C64 45.9 35.1 53.9 31 55.2C20.5 58.6 20.7 63.7 20.7 63.9C20.7 64.1 20.7 64 20.7 64.1V79H31C32.7 79 34 80.3 34 82C34 83.7 32.6 85 31 85Z" fill="#474D5A"/>
<path d="M225.8 50.9C215.8 50.7 211.7 46.5 211.3 46C210.8 45.4 210.5 44.6 210.6 43.7C210.7 42.9 211.1 42.1 211.7 41.6L219.7 35.3C221 34.3 222.9 34.5 223.9 35.8C224.9 37.1 224.7 39 223.4 40L218.8 43.6C220.4 44.2 222.7 44.7 225.8 44.8C227.5 44.8 228.8 46.2 228.7 47.9C228.8 49.5 227.4 50.9 225.8 50.9Z" fill="#474D5A"/>
<path d="M96.7 47.3C88.4 47.3 82.8 47.2 82.1 47.2C80.4 47.2 79.1 45.8 79.2 44.1C79.3 42.4 80.6 41.2 82.3 41.2C83 41.2 154.4 42.9 186.7 33.7C188.3 33.2 190 34.2 190.4 35.8C190.9 37.4 189.9 39.1 188.3 39.5C164 46.3 119.7 47.3 96.7 47.3Z" fill="#474D5A"/>
<path d="M136.4 45.2C136.3 45.2 136.2 45.2 136.1 45.2C134.5 45 133.3 43.5 133.4 41.9L134.9 27.2C135.1 25.6 136.5 24.4 138.2 24.5C139.8 24.7 141 26.2 140.9 27.8L139.4 42.5C139.2 44.1 137.9 45.2 136.4 45.2Z" fill="#474D5A"/>
<path d="M29.3 66H19.9C18.2 66 16.9 64.7 16.9 63C16.9 61.3 18.2 60 19.9 60H29.3C29.3 60 34.5 59.9 37.3 56.3C38.3 55 40.2 54.8 41.5 55.8C42.8 56.8 43 58.7 42 60C37.4 66 29.6 66 29.3 66Z" fill="#474D5A"/>
</svg>
