<svg width="250" height="100" viewBox="0 0 250 100" fill="none" xmlns="http://www.w3.org/2000/svg">
<path d="M175 72.8H72.5V4H239.2V72.8H219.4" fill="white"/>
<path d="M239.2 75.8H219.4C217.7 75.8 216.4 74.5 216.4 72.8C216.4 71.1 217.7 69.8 219.4 69.8H236.2V7H75.5V69.8H175C176.7 69.8 178 71.1 178 72.8C178 74.5 176.7 75.8 175 75.8H72.5C70.8 75.8 69.5 74.5 69.5 72.8V4C69.5 2.3 70.8 1 72.5 1H239.2C240.9 1 242.2 2.3 242.2 4V72.8C242.2 74.4 240.8 75.8 239.2 75.8Z" fill="#474D5A"/>
<path d="M173.4 87.8H72.5C70.8 87.8 69.5 86.5 69.5 84.8C69.5 83.1 70.8 81.8 72.5 81.8H173.4C175.1 81.8 176.4 83.1 176.4 84.8C176.4 86.5 175 87.8 173.4 87.8Z" fill="#474D5A"/>
<path d="M231.4 87.8H220.6C218.9 87.8 217.6 86.5 217.6 84.8C217.6 83.1 218.9 81.8 220.6 81.8H231.4C233.1 81.8 234.4 83.1 234.4 84.8C234.4 86.5 233.1 87.8 231.4 87.8Z" fill="#474D5A"/>
<path d="M235.5 94.8C235.1 94.8 234.7 94.7 234.3 94.6C228.8 92.2 228.3 84.8 228.9 80.9C229.1 79.3 230.7 78.1 232.3 78.4C233.9 78.6 235.1 80.2 234.8 81.8C234.5 83.8 234.6 88.3 236.7 89.2C238.2 89.9 238.9 91.6 238.3 93.1C237.8 94.1 236.6 94.8 235.5 94.8Z" fill="#474D5A"/>
<path d="M211.381 83.719C212.664 75.8141 207.296 68.366 199.391 67.0831C191.486 65.8002 184.038 71.1683 182.755 79.0732C181.472 86.978 186.84 94.4261 194.745 95.709C202.65 96.9919 210.098 91.6238 211.381 83.719Z" fill="white"/>
<path d="M197.1 98.9C187.5 98.9 179.6 91 179.6 81.4C179.6 71.8 187.5 63.9 197.1 63.9C206.7 63.9 214.6 71.8 214.6 81.4C214.6 91 206.7 98.9 197.1 98.9ZM197.1 69.9C190.8 69.9 185.6 75.1 185.6 81.4C185.6 87.7 190.8 92.9 197.1 92.9C203.4 92.9 208.6 87.7 208.6 81.4C208.6 75.1 203.4 69.9 197.1 69.9Z" fill="#474D5A"/>
<path d="M197.1 88.9C193 88.9 189.6 85.5 189.6 81.4C189.6 77.3 193 73.9 197.1 73.9C201.2 73.9 204.6 77.3 204.6 81.4C204.6 85.5 201.2 88.9 197.1 88.9ZM197.1 79.9C196.3 79.9 195.6 80.6 195.6 81.4C195.6 82.2 196.3 82.9 197.1 82.9C197.9 82.9 198.6 82.2 198.6 81.4C198.6 80.6 197.9 79.9 197.1 79.9Z" fill="#474D5A"/>
<path d="M11 72.8V43.4L19.5 27C19.5 27 22.6 19.7 36.1 19.7H60.4V56.9H49.8C36.3 56.9 25.3 67.9 25.3 81.4V84.8H9.09998V72.8H18.4" fill="white"/>
<path d="M25.3 87.8H9.09998C7.39998 87.8 6.09998 86.5 6.09998 84.8V72.8C6.09998 71.5 6.89998 70.4 7.99998 70V43.4C7.99998 42.9 8.09998 42.5 8.29998 42L16.7 25.6C17.3 24.3 21.6 16.7 36 16.7H60.3C62 16.7 63.3 18 63.3 19.7V56.9C63.3 58.6 62 59.9 60.3 59.9H49.8C37.9 59.9 28.3 69.5 28.3 81.4V84.8C28.3 86.4 27 87.8 25.3 87.8ZM12.1 81.8H22.3V81.4C22.3 66.2 34.6 53.9 49.8 53.9H57.4V22.7H36.1C25 22.7 22.4 28 22.2 28.2C22.2 28.3 22.2 28.3 22.1 28.3L14 44.2V69.8H18.4C20.1 69.8 21.4 71.1 21.4 72.8C21.4 74.5 20.1 75.8 18.4 75.8H12.1V81.8Z" fill="#474D5A"/>
<path d="M49.7999 95.9C57.8081 95.9 64.2999 89.4082 64.2999 81.4C64.2999 73.3919 57.8081 66.9 49.7999 66.9C41.7918 66.9 35.2999 73.3919 35.2999 81.4C35.2999 89.4082 41.7918 95.9 49.7999 95.9Z" fill="white"/>
<path d="M49.7999 98.9C40.1999 98.9 32.2999 91 32.2999 81.4C32.2999 71.8 40.1999 63.9 49.7999 63.9C59.3999 63.9 67.2999 71.8 67.2999 81.4C67.2999 91 59.4999 98.9 49.7999 98.9ZM49.7999 69.9C43.4999 69.9 38.2999 75.1 38.2999 81.4C38.2999 87.7 43.4999 92.9 49.7999 92.9C56.0999 92.9 61.2999 87.7 61.2999 81.4C61.2999 75.1 56.1999 69.9 49.7999 69.9Z" fill="#474D5A"/>
<path d="M49.7999 88.9C45.6999 88.9 42.2999 85.5 42.2999 81.4C42.2999 77.3 45.6999 73.9 49.7999 73.9C53.8999 73.9 57.2999 77.3 57.2999 81.4C57.2999 85.5 53.9999 88.9 49.7999 88.9ZM49.7999 79.9C48.9999 79.9 48.2999 80.6 48.2999 81.4C48.2999 82.2 48.9999 82.9 49.7999 82.9C50.5999 82.9 51.2999 82.2 51.2999 81.4C51.2999 80.6 50.6999 79.9 49.7999 79.9Z" fill="#474D5A"/>
<path d="M20 53.9C18.3 53.9 17 52.6 17 50.9C17 49.2 18.3 47.9 20 47.9C35.1 47.9 36.5 40.3 36.5 40.2C36.7 38.7 38 37.6 39.5 37.6H48.8V28.5C48.8 26.8 50.1 25.5 51.8 25.5C53.5 25.5 54.8 26.8 54.8 28.5V40.6C54.8 42.3 53.5 43.6 51.8 43.6H41.6C39.9 47.4 34.8 53.9 20 53.9Z" fill="#474D5A"/>
</svg>
