<svg width="250" height="100" viewBox="0 0 250 100" fill="none" xmlns="http://www.w3.org/2000/svg">
<path d="M221.5 57.5V39.5C221.5 39.5 213.9 26.9 210.3 21.8C206.6 16.7 200.6 16.5 198.6 16.3C196.6 16.1 128.2 14.3 128.2 14.3C116 14.3 107.7 18.9 107.7 18.9L64.1 39.9C55.5 44.2 43.5 46.1 41.2 46.5C29.5 48.8 28 56.2 28 56.2C28 56.2 25.8 70.3 24.5 79.2L45 78.9C45 79 45 79.1 45 79.2C45 88.6 52.6 96.2 62 96.2C71.4 96.2 79 88.6 79 79.2C79 79 79 78.7 79 78.5L168.5 77.3C168.4 77.9 168.4 78.5 168.4 79.2C168.4 88.6 176 96.2 185.4 96.2C194.8 96.2 202.4 88.6 202.4 79.2C202.4 78.4 202.3 77.6 202.2 76.9L210.4 76.8C220.9 76.8 225.5 73.3 225.5 73.3V63.5L221.5 57.5Z" fill="white"/>
<path d="M159.6 82.1H88.2001C86.5001 82.1 85.2001 80.8 85.2001 79.1C85.2001 77.4 86.5001 76.1 88.2001 76.1H159.6C161.3 76.1 162.6 77.4 162.6 79.1C162.6 80.8 161.3 82.1 159.6 82.1Z" fill="#474D5A"/>
<path d="M24.4 82.1C24.3 82.1 24.1 82.1 24 82.1C22.4 81.9 21.2 80.3 21.5 78.7C22.8 69.9 25 55.8 25 55.7V55.6C25.1 55.2 27.1 46.2 40.5 43.7C40.7 43.7 41 43.6 41.4 43.5C44.8 42.9 55.2 41 62.6 37.3L106.2 16.2C107.2 15.7 115.8 11.3 128.1 11.3C135.2 11.5 196.7 13.1 198.7 13.3H199C201.5 13.5 208.3 14 212.6 20C216.3 25.2 223.6 37.4 223.9 37.9C224.2 38.4 224.3 38.9 224.3 39.4V56.5L227.7 61.7C228 62.2 228.2 62.8 228.2 63.3V73.1C228.2 74 227.8 74.9 227 75.5C226.4 75.9 221.3 79.7 210.1 79.7C208.4 79.7 207.1 78.4 207.1 76.7C207.1 75 208.4 73.7 210.1 73.7C216.5 73.7 220.4 72.3 222.2 71.4V64.2L218.8 59C218.5 58.5 218.3 57.9 218.3 57.4V40.3C216.7 37.6 210.7 27.8 207.6 23.5C205 19.8 200.6 19.5 198.5 19.3H198.1C196.2 19.2 146.8 17.8 127.9 17.3C116.7 17.3 109 21.5 108.9 21.5C108.9 21.5 108.8 21.5 108.8 21.6L65.4 42.6C57.3 46.7 46.2 48.7 42.6 49.3C42.2 49.4 41.9 49.4 41.7 49.5C32.9 51.2 31.1 56.1 30.9 56.8C30.7 58.3 28.6 71.3 27.4 79.6C27.2 81 25.9 82.1 24.4 82.1Z" fill="#474D5A"/>
<path d="M29.1 64.2C27.7 64.2 26.4 63.2 26.1 61.7C25.8 60.1 26.9 58.5 28.5 58.2L37.1 56.7C37.1 56.7 41.3 55.9 43.7 52.5C44.7 51.2 46.5 50.8 47.9 51.8C49.2 52.8 49.6 54.6 48.6 56C44.7 61.4 38.4 62.6 38.2 62.6L29.6 64.1C29.4 64.2 29.2 64.2 29.1 64.2Z" fill="#474D5A"/>
<path d="M80.1 44.6C78.5 44.6 77.2 43.3 77.1 41.7C77 40 78.3 38.6 80 38.6L198.4 33.2C200.1 33.1 201.5 34.4 201.5 36.1C201.6 37.8 200.3 39.2 198.6 39.2L80.3 44.6C80.2 44.6 80.2 44.6 80.1 44.6Z" fill="#474D5A"/>
<path d="M131 40.7C130.9 40.7 130.8 40.7 130.6 40.7C129 40.5 127.8 39 128 37.4L129.8 22C130 20.4 131.5 19.2 133.1 19.4C134.7 19.6 135.9 21.1 135.7 22.7L133.9 38C133.8 39.5 132.5 40.7 131 40.7Z" fill="#474D5A"/>
<path d="M179.8 38.1C178.1 38.1 176.8 36.8 176.8 35.1V23.2C176.8 21.5 178.1 20.2 179.8 20.2C181.5 20.2 182.8 21.5 182.8 23.2V35.1C182.8 36.7 181.5 38.1 179.8 38.1Z" fill="#474D5A"/>
<path d="M219.3 45.6C219.2 45.6 219.1 45.6 219.1 45.6C207.4 44.7 202.6 33.6 201.7 27.9C201.4 26.3 202.6 24.7 204.2 24.5C205.8 24.3 207.4 25.4 207.6 27C207.7 27.5 209.7 38.9 219.5 39.7C221.2 39.8 222.4 41.3 222.3 42.9C222.2 44.4 220.9 45.6 219.3 45.6Z" fill="#474D5A"/>
<path d="M36.3 82.1H24.4C22.7 82.1 21.4 80.8 21.4 79.1C21.4 77.4 22.7 76.1 24.4 76.1H36.2C37.9 76.1 39.2 77.4 39.2 79.1C39.2 80.8 37.9 82.1 36.3 82.1Z" fill="#474D5A"/>
<path d="M61.9 99.1C50.9 99.1 41.9 90.1 41.9 79.1C41.9 68.1 50.9 59.1 61.9 59.1C72.9 59.1 81.9 68.1 81.9 79.1C81.9 90.1 72.9 99.1 61.9 99.1ZM61.9 65.1C54.2 65.1 47.9 71.4 47.9 79.1C47.9 86.8 54.2 93.1 61.9 93.1C69.6 93.1 75.9 86.8 75.9 79.1C75.9 71.4 69.6 65.1 61.9 65.1Z" fill="#474D5A"/>
<path d="M61.9 89.1C56.4 89.1 51.9 84.6 51.9 79.1C51.9 73.6 56.4 69.1 61.9 69.1C67.4 69.1 71.9 73.6 71.9 79.1C71.9 84.6 67.4 89.1 61.9 89.1ZM61.9 75.1C59.7 75.1 57.9 76.9 57.9 79.1C57.9 81.3 59.7 83.1 61.9 83.1C64.1 83.1 65.9 81.3 65.9 79.1C65.9 76.9 64.1 75.1 61.9 75.1Z" fill="#474D5A"/>
<path d="M185.2 99.1C174.2 99.1 165.2 90.1 165.2 79.1C165.2 68.1 174.2 59.1 185.2 59.1C196.2 59.1 205.2 68.1 205.2 79.1C205.2 90.1 196.3 99.1 185.2 99.1ZM185.2 65.1C177.5 65.1 171.2 71.4 171.2 79.1C171.2 86.8 177.5 93.1 185.2 93.1C192.9 93.1 199.2 86.8 199.2 79.1C199.2 71.4 193 65.1 185.2 65.1Z" fill="#474D5A"/>
<path d="M185.2 89.1C179.7 89.1 175.2 84.6 175.2 79.1C175.2 73.6 179.7 69.1 185.2 69.1C190.7 69.1 195.2 73.6 195.2 79.1C195.2 84.6 190.7 89.1 185.2 89.1ZM185.2 75.1C183 75.1 181.2 76.9 181.2 79.1C181.2 81.3 183 83.1 185.2 83.1C187.4 83.1 189.2 81.3 189.2 79.1C189.2 76.9 187.4 75.1 185.2 75.1Z" fill="#474D5A"/>
</svg>
