<svg width="250" height="100" viewBox="0 0 250 100" fill="none" xmlns="http://www.w3.org/2000/svg">
<path d="M117.4 40L81.8 4H40.4L40.6 47.4C30.9 50.8 23.9 60.1 23.9 71C23.9 84.8 35.1 96 48.9 96V54V46V12.5H78L117.4 51.7V40Z" fill="white"/>
<path d="M207.7 32H177.6V3.5C177.6 3.5 157.3 3.5 149.2 3.5C141.1 3.5 138.7 9.3 138.7 9.3L132.1 22.7L117.4 32.2V54H207.7V32Z" fill="white"/>
<path d="M209.2 62H117.7C108.3 62 100.7 69.6 100.7 79C100.7 88.4 108.3 96 117.7 96H209.2C218.6 96 226.2 88.4 226.2 79C226.2 69.6 218.6 62 209.2 62Z" fill="white"/>
<path d="M48.9 57H40.7C39 57 37.7 55.7 37.7 54L37.4 4C37.4 3.2 37.7 2.4 38.3 1.9C38.9 1.3 39.6 1 40.4 1H81.7C82.5 1 83.3 1.3 83.8 1.9L119.4 37.9C120 38.5 120.3 39.2 120.3 40V51.7C120.3 52.9 119.6 54 118.5 54.5C117.4 55 116.1 54.7 115.2 53.9L76.8 15.5H51.9V54C51.9 55.7 50.6 57 48.9 57ZM43.7 51H45.9V12.5C45.9 10.8 47.2 9.5 48.9 9.5H78C78.8 9.5 79.6 9.8 80.1 10.4L114.4 44.5V41.2L80.5 7H43.4L43.7 51Z" fill="#474D5A"/>
<path d="M117.4 32.2V54H207.7V32H177.6V3.5C177.6 3.5 157.3 3.5 149.2 3.5C141.1 3.5 138.7 9.3 138.7 9.3L132.1 22.7L117.4 32.2Z" fill="white"/>
<path d="M207.7 57H117.4C115.7 57 114.4 55.7 114.4 54V32.2C114.4 31.2 114.9 30.2 115.8 29.7L129.8 20.7L136 8C136.5 6.9 139.8 0.5 149.2 0.5H177.6C179.3 0.5 180.6 1.8 180.6 3.5V29H207.7C209.4 29 210.7 30.3 210.7 32V54C210.7 55.6 209.3 57 207.7 57ZM120.4 51H204.7V35H177.6C175.9 35 174.6 33.7 174.6 32V6.5H149.2C143.4 6.5 141.6 10.1 141.4 10.5C141.4 10.6 141.4 10.6 141.3 10.6L134.8 24C134.6 24.5 134.2 24.9 133.7 25.2L120.4 33.8V51Z" fill="#474D5A"/>
<path d="M167.7 35.2H135.6C133.9 35.2 132.6 33.9 132.6 32.2C132.6 30.5 133.9 29.2 135.6 29.2H167.7C169.4 29.2 170.7 30.5 170.7 32.2C170.7 33.9 169.4 35.2 167.7 35.2Z" fill="#474D5A"/>
<path d="M155.7 26.2H142.1C140.4 26.2 139.1 24.9 139.1 23.2C139.1 21.5 140.4 20.2 142.1 20.2H155.7C157.7 20.2 158.9 19.2 159.2 18.2C159.9 16.1 161 10.8 161.1 10.8C161.5 9.20001 163.1 8.20001 164.7 8.50001C166.3 8.90001 167.3 10.5 167 12.1C166.9 12.3 165.7 17.6 165 20C163.8 23.7 160.1 26.2 155.7 26.2Z" fill="#474D5A"/>
<path d="M185.2 63.9C183.5 63.9 182.2 62.6 182.2 60.9V54.4C182.2 52.7 183.5 51.4 185.2 51.4C186.9 51.4 188.2 52.7 188.2 54.4V60.9C188.2 62.6 186.8 63.9 185.2 63.9Z" fill="#474D5A"/>
<path d="M209.2 99H117.7C106.7 99 97.7 90 97.7 79C97.7 68 106.7 59 117.7 59H209.2C220.2 59 229.2 68 229.2 79C229.2 90 220.2 99 209.2 99ZM117.7 65C110 65 103.7 71.3 103.7 79C103.7 86.7 110 93 117.7 93H209.2C216.9 93 223.2 86.7 223.2 79C223.2 71.3 216.9 65 209.2 65H117.7Z" fill="#474D5A"/>
<path d="M117.7 89C112.2 89 107.7 84.5 107.7 79C107.7 73.5 112.2 69 117.7 69C123.2 69 127.7 73.5 127.7 79C127.7 84.5 123.2 89 117.7 89ZM117.7 75C115.5 75 113.7 76.8 113.7 79C113.7 81.2 115.5 83 117.7 83C119.9 83 121.7 81.2 121.7 79C121.7 76.8 119.9 75 117.7 75Z" fill="#474D5A"/>
<path d="M140.2 89C134.7 89 130.2 84.5 130.2 79C130.2 73.5 134.7 69 140.2 69C145.7 69 150.2 73.5 150.2 79C150.2 84.5 145.7 89 140.2 89ZM140.2 75C138 75 136.2 76.8 136.2 79C136.2 81.2 138 83 140.2 83C142.4 83 144.2 81.2 144.2 79C144.2 76.8 142.4 75 140.2 75Z" fill="#474D5A"/>
<path d="M162.7 89C157.2 89 152.7 84.5 152.7 79C152.7 73.5 157.2 69 162.7 69C168.2 69 172.7 73.5 172.7 79C172.7 84.5 168.2 89 162.7 89ZM162.7 75C160.5 75 158.7 76.8 158.7 79C158.7 81.2 160.5 83 162.7 83C164.9 83 166.7 81.2 166.7 79C166.7 76.8 164.9 75 162.7 75Z" fill="#474D5A"/>
<path d="M185.2 89C179.7 89 175.2 84.5 175.2 79C175.2 73.5 179.7 69 185.2 69C190.7 69 195.2 73.5 195.2 79C195.2 84.5 190.7 89 185.2 89ZM185.2 75C183 75 181.2 76.8 181.2 79C181.2 81.2 183 83 185.2 83C187.4 83 189.2 81.2 189.2 79C189.2 76.8 187.4 75 185.2 75Z" fill="#474D5A"/>
<path d="M207.7 89C202.2 89 197.7 84.5 197.7 79C197.7 73.5 202.2 69 207.7 69C213.2 69 217.7 73.5 217.7 79C217.7 84.5 213.2 89 207.7 89ZM207.7 75C205.5 75 203.7 76.8 203.7 79C203.7 81.2 205.5 83 207.7 83C209.9 83 211.7 81.2 211.7 79C211.7 76.8 209.9 75 207.7 75Z" fill="#474D5A"/>
<path d="M140.2 63.9C138.5 63.9 137.2 62.6 137.2 60.9V54.4C137.2 52.7 138.5 51.4 140.2 51.4C141.9 51.4 143.2 52.7 143.2 54.4V60.9C143.2 62.6 141.8 63.9 140.2 63.9Z" fill="#474D5A"/>
<path d="M48.9 96C35.1 96 23.9 84.8 23.9 71C23.9 57.2 35.1 46 48.9 46V96Z" fill="white"/>
<path d="M48.9 99C33.4 99 20.9 86.4 20.9 71C20.9 55.5 33.5 43 48.9 43C50.6 43 51.9 44.3 51.9 46V96C51.9 97.6 50.6 99 48.9 99ZM45.9 49.1C35.2 50.6 26.9 59.8 26.9 70.9C26.9 82 35.2 91.3 45.9 92.7V49.1Z" fill="#474D5A"/>
</svg>
