<svg width="250" height="100" viewBox="0 0 250 100" fill="none" xmlns="http://www.w3.org/2000/svg">
<path d="M220.4 49.1L210.5 50.1C156.2 25.2 128.3 32 124.8 32.8C102.5 37.7 93 46.6 93 46.6C47.7 48.4 31.7999 67.8 31.7999 67.8C25.1999 67.8 25.2 74.6 25.2 74.6V88.7H37.5L46.2 88.6C49.2 93.2 54.4 96.2 60.2999 96.2C66.2999 96.2 71.5999 93.1 74.5999 88.3L171.1 87.2C174 92.6 179.6 96.2 186.1 96.2C192.7 96.2 198.5 92.4 201.3 86.9L210.1 86.8C218.8 87.3 222.8 83.2 222.8 83.2L225 62.4C219.6 52.5 220.4 49.1 220.4 49.1Z" fill="white"/>
<path d="M163 91.7H83.7C82 91.7 80.7 90.4 80.7 88.7C80.7 87 82 85.7 83.7 85.7H163C164.7 85.7 166 87 166 88.7C166 90.4 164.6 91.7 163 91.7Z" fill="#474D5A"/>
<path d="M37.5 91.7H25.1C23.4 91.7 22.1 90.4 22.1 88.7V74.6C22.1 70.9 24.3 65.6 30.3 64.9C34.3 60.7 51.8 45.5 91.8 43.7C94.7 41.3 104.8 34.1 124.1 29.9H124.3C134.2 27.7 162.4 25 211 47.1L220.1 46.2C221.1 46.1 222.2 46.3 222.8 47.1C223.4 47.9 223.6 48.7 223.3 49.7C223.3 50.3 223.6 53.6 227.7 60.9C228 61.4 228.1 62.1 228.1 62.7L225.9 83.5C225.8 84.2 225.5 84.8 225 85.3C224.8 85.5 219.9 90.3 210 89.7C208.3 89.6 207.1 88.2 207.2 86.5C207.3 84.8 208.7 83.6 210.4 83.7C215.6 84 218.8 82.4 220.1 81.6L222 63C219.4 58.2 218.2 54.8 217.7 52.5L210.7 53.2C210.2 53.2 209.6 53.2 209.2 52.9C161.8 31.2 135 33.7 125.6 35.7H125.4C104.4 40.3 95.2 48.7 95.1 48.8C94.6 49.3 93.9 49.6 93.2 49.6C49.7 51.3 34.3 69.5 34.2 69.7C33.6 70.4 32.8 70.8 31.9 70.8C28.6 70.8 28.3 73.7 28.3 74.6V85.7H37.7C39.4 85.7 40.7 87 40.7 88.7C40.7 90.4 39.1 91.7 37.5 91.7Z" fill="#474D5A"/>
<path d="M115.1 56.4C105.1 56.4 100.7 53.8 100.1 53.5C98.7 52.6 98.3 50.8 99.2 49.4C100.1 48 101.9 47.6 103.3 48.4C103.5 48.5 108.6 51.3 120.9 50.1C125.8 49.6 154.9 47.1 160.6 46.6L166.9 41.1C168.1 40 170 40.1 171.1 41.4C172.2 42.6 172.1 44.5 170.8 45.6L163.8 51.8C163.3 52.2 162.7 52.5 162.1 52.5C161.7 52.5 126.8 55.6 121.4 56.1C119.1 56.3 117 56.4 115.1 56.4Z" fill="#474D5A"/>
<path d="M60.3 99.1C49.3 99.1 40.3 90.1 40.3 79.1C40.3 68.1 49.3 59.1 60.3 59.1C71.3 59.1 80.3 68.1 80.3 79.1C80.3 90.1 71.4 99.1 60.3 99.1ZM60.3 65.1C52.6 65.1 46.3 71.4 46.3 79.1C46.3 86.8 52.6 93.1 60.3 93.1C68 93.1 74.3 86.8 74.3 79.1C74.3 71.4 68.1 65.1 60.3 65.1Z" fill="#474D5A"/>
<path d="M60.3 89.1C54.8 89.1 50.3 84.6 50.3 79.1C50.3 73.6 54.8 69.1 60.3 69.1C65.8 69.1 70.3 73.6 70.3 79.1C70.3 84.6 65.9 89.1 60.3 89.1ZM60.3 75.1C58.1 75.1 56.3 76.9 56.3 79.1C56.3 81.3 58.1 83.1 60.3 83.1C62.5 83.1 64.3 81.3 64.3 79.1C64.3 76.9 62.5 75.1 60.3 75.1Z" fill="#474D5A"/>
<path d="M186.2 99.1C175.2 99.1 166.2 90.1 166.2 79.1C166.2 68.1 175.2 59.1 186.2 59.1C197.2 59.1 206.2 68.1 206.2 79.1C206.2 90.1 197.2 99.1 186.2 99.1ZM186.2 65.1C178.5 65.1 172.2 71.4 172.2 79.1C172.2 86.8 178.5 93.1 186.2 93.1C193.9 93.1 200.2 86.8 200.2 79.1C200.2 71.4 193.9 65.1 186.2 65.1Z" fill="#474D5A"/>
<path d="M186.2 89.1C180.7 89.1 176.2 84.6 176.2 79.1C176.2 73.6 180.7 69.1 186.2 69.1C191.7 69.1 196.2 73.6 196.2 79.1C196.2 84.6 191.7 89.1 186.2 89.1ZM186.2 75.1C184 75.1 182.2 76.9 182.2 79.1C182.2 81.3 184 83.1 186.2 83.1C188.4 83.1 190.2 81.3 190.2 79.1C190.2 76.9 188.4 75.1 186.2 75.1Z" fill="#474D5A"/>
</svg>
