<svg width="250" height="100" viewBox="0 0 250 100" fill="none" xmlns="http://www.w3.org/2000/svg">
<path d="M229.6 60.5L228.1 54.8C228.2 53.8 228.5 52.6 228.9 51.4C230.6 46.8 226.8 44.5 226.8 44.5L211 34.7L213.6 28.6C145.9 23.2 127.8 25.3 120.6 26C91.8 28.6 70.6 46.2 70.6 46.2C17 47.4 18.1 62.8 18.1 62.8L19.6 84.8H32.2L40.2 84.7C42.5 91.3 48.8 96 56.2 96C63.7 96 70.1 91.1 72.3 84.4L167.6 83.6C169.6 90.7 176.2 96 184 96C191.9 96 198.5 90.6 200.4 83.3L209.3 83.2C228.9 82.4 232 77.3 232 77.3V66.1L229.6 60.5Z" fill="white"/>
<path d="M158.6 87.9H81.2C79.5 87.9 78.2 86.6 78.2 84.9C78.2 83.2 79.5 81.9 81.2 81.9H158.6C160.3 81.9 161.6 83.2 161.6 84.9C161.6 86.6 160.2 87.9 158.6 87.9Z" fill="#474D5A"/>
<path d="M32.2 87.9H19.6C18 87.9 16.7 86.7 16.6 85.1L15.1 63.1C15.1 62.5 15 59.6 18.2 56.1C23.1 50.7 36.1 44.1 69.7 43.3C74 39.9 94 25.4 120.5 23L121.2 22.9C129.3 22.1 148.2 20.4 214 25.6C215 25.7 215.8 26.2 216.3 27C216.8 27.8 216.9 28.9 216.5 29.7L214.9 33.4L228.5 41.9C230.5 43.1 233.8 47 231.8 52.4C231.3 53.7 231.1 55.3 231 56.1L234.8 64.8C235 65.2 235.1 65.6 235.1 66V77.4C235.1 78 234.9 78.5 234.7 79C234 80.1 229.7 85.6 209.5 86.4C207.9 86.5 206.5 85.2 206.4 83.5C206.3 81.8 207.6 80.5 209.3 80.4C222.6 79.9 227.6 77.3 229.2 76.2V66.7L225.3 57.9C225.1 57.5 225 57 225 56.5C225 56.2 225.2 53.1 226.2 50.3C227 48.1 225.5 47.1 225.4 47L209.6 37.2C208.3 36.4 207.8 34.8 208.4 33.5L209.4 31.2C147.5 26.4 128.9 28.2 121.9 28.8L121.2 28.9C93.7 31.4 73 48.3 72.8 48.5C72.3 48.9 71.6 49.2 71 49.2C24.5 50.2 21.4 62.1 21.3 62.8L22.6 81.9H32.4C34.1 81.9 35.4 83.2 35.4 84.9C35.4 86.6 33.8 87.9 32.2 87.9Z" fill="#474D5A"/>
<path d="M119.1 51.5C101 51.5 86.2 51.2 82.2 51.1C80.5 51.1 79.2 49.7 79.3 48C79.3 46.3 80.7 45 82.4 45.1C121.2 45.9 183.4 45.6 199.9 41.4L198.6 39.7C197.6 38.4 197.8 36.5 199.1 35.5C200.4 34.5 202.3 34.7 203.3 36L207.2 40.9C207.7 41.6 208 42.4 207.8 43.3C207.7 44.1 207.2 44.9 206.4 45.3C198.1 50.5 152.8 51.5 119.1 51.5Z" fill="#474D5A"/>
<path d="M166.5 48.8C166.3 48.8 166.1 48.8 165.9 48.7C164.3 48.4 163.2 46.8 163.6 45.1L165.7 35.4C166 33.8 167.6 32.7 169.3 33.1C170.9 33.4 172 35 171.6 36.7L169.5 46.4C169.2 47.8 167.9 48.8 166.5 48.8Z" fill="#474D5A"/>
<path d="M131.7 49.8C131.5 49.8 131.3 49.8 131.1 49.7C129.5 49.3 128.5 47.7 128.8 46.1L131.4 34.4C131.8 32.8 133.4 31.8 135 32.1C136.6 32.5 137.6 34.1 137.3 35.7L134.7 47.4C134.4 48.9 133.1 49.8 131.7 49.8Z" fill="#474D5A"/>
<path d="M19.6 68.3C18 68.3 16.7 67.1 16.6 65.5C16.5 63.8 17.8 62.4 19.4 62.3L28.8 61.8C28.9 61.8 28.9 61.8 29 61.8C29.1 61.8 33.2 61.7 35.2 58C36 56.5 37.8 56 39.3 56.8C40.8 57.6 41.3 59.4 40.5 60.9C37 67.4 30.2 67.8 29.1 67.8L19.8 68.3C19.7 68.3 19.6 68.3 19.6 68.3Z" fill="#474D5A"/>
<path d="M230 65.3C219.8 65.3 214.3 61.5 211.4 58.4C208.2 54.9 207.5 51.3 207.5 50.9C207.4 50 207.6 49.1 208.2 48.5C208.8 47.8 209.6 47.4 210.5 47.4H227C228.7 47.4 230 48.7 230 50.4C230 52.1 228.7 53.4 227 53.4H215.1C217.1 56.1 221.3 59.3 230 59.3C231.7 59.3 233 60.6 233 62.3C233 64 231.7 65.3 230 65.3Z" fill="#474D5A"/>
<path d="M56.2 99.1C45.2 99.1 36.2 90.1 36.2 79.1C36.2 68.1 45.2 59.1 56.2 59.1C67.2 59.1 76.1999 68.1 76.1999 79.1C76.1999 90.1 67.2 99.1 56.2 99.1ZM56.2 65.1C48.5 65.1 42.2 71.4 42.2 79.1C42.2 86.8 48.5 93.1 56.2 93.1C63.9 93.1 70.1999 86.8 70.1999 79.1C70.1999 71.4 63.9 65.1 56.2 65.1Z" fill="#474D5A"/>
<path d="M56.2 89.1C50.7 89.1 46.2 84.6 46.2 79.1C46.2 73.6 50.7 69.1 56.2 69.1C61.7 69.1 66.1999 73.6 66.1999 79.1C66.1999 84.6 61.7 89.1 56.2 89.1ZM56.2 75.1C54 75.1 52.2 76.9 52.2 79.1C52.2 81.3 54 83.1 56.2 83.1C58.4 83.1 60.2 81.3 60.2 79.1C60.2 76.9 58.4 75.1 56.2 75.1Z" fill="#474D5A"/>
<path d="M184 99.1C173 99.1 164 90.1 164 79.1C164 68.1 173 59.1 184 59.1C195 59.1 204 68.1 204 79.1C204 90.1 195 99.1 184 99.1ZM184 65.1C176.3 65.1 170 71.4 170 79.1C170 86.8 176.3 93.1 184 93.1C191.7 93.1 198 86.8 198 79.1C198 71.4 191.7 65.1 184 65.1Z" fill="#474D5A"/>
<path d="M184 89.1C178.5 89.1 174 84.6 174 79.1C174 73.6 178.5 69.1 184 69.1C189.5 69.1 194 73.6 194 79.1C194 84.6 189.5 89.1 184 89.1ZM184 75.1C181.8 75.1 180 76.9 180 79.1C180 81.3 181.8 83.1 184 83.1C186.2 83.1 188 81.3 188 79.1C188 76.9 186.2 75.1 184 75.1Z" fill="#474D5A"/>
</svg>
