<svg width="250" height="100" viewBox="0 0 250 100" fill="none" xmlns="http://www.w3.org/2000/svg">
<path d="M215.4 53.4C215.4 45.2 206.9 37.8 205.8 36.8C189.6 20.6 169.4 21.7 169.4 21.7C169.4 21.7 151.3 21.4 139 21.4C124.2 21.4 116.8 25.3 116.8 25.3L75.8 41.8C12.2 41.8 31.5 83.4 31.5 83.4H41.8L49.8 83.2C51.6 90.6 58.3 96.1 66.3 96.1C74.5 96.1 81.4 90.3 83 82.5L163.9 80.8C164.7 89.4 172 96.1 180.8 96.1C189.9 96.1 197.3 89 197.8 80L205.9 79.8L217.9 74.9C222.2 61.7 215.4 53.4 215.4 53.4Z" fill="white"/>
<path d="M66.2 99.1C55.2 99.1 46.2 90.1 46.2 79.1C46.2 68.1 55.2 59.1 66.2 59.1C77.2 59.1 86.2 68.1 86.2 79.1C86.2 90.1 77.3 99.1 66.2 99.1ZM66.2 65.1C58.5 65.1 52.2 71.4 52.2 79.1C52.2 86.8 58.5 93.1 66.2 93.1C73.9 93.1 80.2 86.8 80.2 79.1C80.2 71.4 73.9 65.1 66.2 65.1Z" fill="#474D5A"/>
<path d="M66.2 89.1C60.7 89.1 56.2 84.6 56.2 79.1C56.2 73.6 60.7 69.1 66.2 69.1C71.7 69.1 76.2 73.6 76.2 79.1C76.2 84.6 71.7 89.1 66.2 89.1ZM66.2 75.1C64 75.1 62.2 76.9 62.2 79.1C62.2 81.3 64 83.1 66.2 83.1C68.4 83.1 70.2 81.3 70.2 79.1C70.2 76.9 68.4 75.1 66.2 75.1Z" fill="#474D5A"/>
<path d="M180.7 99.1C169.7 99.1 160.7 90.1 160.7 79.1C160.7 68.1 169.7 59.1 180.7 59.1C191.7 59.1 200.7 68.1 200.7 79.1C200.7 90.1 191.7 99.1 180.7 99.1ZM180.7 65.1C173 65.1 166.7 71.4 166.7 79.1C166.7 86.8 173 93.1 180.7 93.1C188.4 93.1 194.7 86.8 194.7 79.1C194.7 71.4 188.4 65.1 180.7 65.1Z" fill="#474D5A"/>
<path d="M180.7 89.1C175.2 89.1 170.7 84.6 170.7 79.1C170.7 73.6 175.2 69.1 180.7 69.1C186.2 69.1 190.7 73.6 190.7 79.1C190.7 84.6 186.2 89.1 180.7 89.1ZM180.7 75.1C178.5 75.1 176.7 76.9 176.7 79.1C176.7 81.3 178.5 83.1 180.7 83.1C182.9 83.1 184.7 81.3 184.7 79.1C184.7 76.9 182.9 75.1 180.7 75.1Z" fill="#474D5A"/>
<path d="M156.5 86.4H91.1C89.4 86.4 88.1 85.1 88.1 83.4C88.1 81.7 89.4 80.4 91.1 80.4H156.4C158.1 80.4 159.4 81.7 159.4 83.4C159.4 85.1 158.1 86.4 156.5 86.4Z" fill="#474D5A"/>
<path d="M41.8 86.4H31.5C30.3 86.4 29.3 85.7 28.8 84.7C28.5 84 21.4 68.6 29.8 55.4C36.8 44.5 52 38.9 75.2 38.8L115.5 22.5C116.7 21.9 124.6 18.4 139 18.4C150.7 18.4 167.9 18.7 169.4 18.7C171.3 18.6 191.5 18.2 207.9 34.6C208 34.7 208.1 34.8 208.2 34.9C214.6 40.9 218 46.8 218.4 52.4C220.2 55.1 224.8 63.7 220.6 76C220.3 76.8 219.7 77.5 218.9 77.8L206.9 82.7C205.4 83.3 203.6 82.6 203 81.1C202.4 79.6 203.1 77.8 204.6 77.2L215.2 72.8C218.3 62.1 213.2 55.6 213 55.3C212.6 54.8 212.3 54.1 212.3 53.4C212.3 50.6 210.9 45.8 204 39.3C203.8 39.1 203.7 39 203.6 38.9C188.6 24 169.7 24.7 169.5 24.7C169.4 24.7 169.4 24.7 169.3 24.7C169.1 24.7 151.1 24.4 138.9 24.4C125.2 24.4 118.1 27.9 118 27.9C117.9 27.9 117.8 28 117.8 28L76.9 44.6C76.5 44.7 76.2 44.8 75.8 44.8C54.5 44.8 40.8 49.4 34.9 58.6C29.7 66.7 32.2 76.5 33.6 80.4H41.8C43.5 80.4 44.8 81.7 44.8 83.4C44.8 85.1 43.5 86.4 41.8 86.4Z" fill="#474D5A"/>
<path d="M213.5 55.8C204.3 55.8 199.3 52.4 196.7 49.5C193.8 46.3 193.2 43.1 193.1 42.7C193 41.8 193.2 40.9 193.8 40.3C194.4 39.6 195.2 39.2 196.1 39.2H209.4C211.1 39.2 212.4 40.5 212.4 42.2C212.4 43.9 211.1 45.2 209.4 45.2H201C202.9 47.4 206.5 49.8 213.5 49.8C215.2 49.8 216.5 51.1 216.5 52.8C216.5 54.5 215.2 55.8 213.5 55.8Z" fill="#474D5A"/>
<path d="M94.3 48.2C92.7 48.2 91.4 46.9 91.3 45.3C91.2 43.6 92.5 42.2 94.2 42.2L161.9 39.2H162C162.3 39.2 170.9 38.9 176.7 29.1C177.5 27.7 179.4 27.2 180.8 28C182.2 28.8 182.7 30.7 181.9 32.1C174.6 44.6 163.4 45.1 162.1 45.2L94.5 48.2C94.3 48.2 94.3 48.2 94.3 48.2Z" fill="#474D5A"/>
<path d="M136.7 45.2C136.6 45.2 136.5 45.2 136.4 45.2C134.8 45 133.5 43.6 133.7 41.9L134.9 30.3C135.1 28.7 136.5 27.4 138.2 27.6C139.8 27.8 141.1 29.2 140.9 30.9L139.7 42.5C139.5 44 138.2 45.2 136.7 45.2Z" fill="#474D5A"/>
<path d="M31 66C29.3 66 28 64.7 28 63C28 61.3 29.3 60 31 60H39.3C39.4 60 42.9 59.9 44.5 56.8C45.3 55.3 47.1 54.8 48.6 55.6C50.1 56.4 50.6 58.2 49.8 59.7C46.4 66 39.6 66 39.3 66H31Z" fill="#474D5A"/>
</svg>
