<svg width="250" height="100" viewBox="0 0 250 100" fill="none" xmlns="http://www.w3.org/2000/svg">
<path d="M225.4 80.6L225.3 51.9C225.3 51.9 218.1 21.1 216.6 16.5C215.1 11.9 209.5 12.3 209.5 12.3C116.6 12.3 116.6 12.3 106 12.3C91.6 12.3 86.6 16.1 86.6 16.1L60.6 32.6C60.6 32.6 50.8 37 39.3 42.1C27.8 47.2 28 61.6 28 61.6L24.7 65.5C24.7 65.5 24.7 77.3 24.7 85.3H40.6L49.3 85.2C51.8 91.6 57.9 96.1 65.2 96.1C72.5 96.1 78.8 91.5 81.2 85L172.9 84.3C175.1 91.2 181.5 96.2 189.1 96.2C196.8 96.2 203.3 91.1 205.4 84.1L213.4 84C221.3 83.2 225.4 80.6 225.4 80.6Z" fill="white"/>
<path d="M164.4 88.3H89.5C87.8 88.3 86.5 87 86.5 85.3C86.5 83.6 87.8 82.3 89.5 82.3H164.4C166.1 82.3 167.4 83.6 167.4 85.3C167.4 87 166.1 88.3 164.4 88.3Z" fill="#474D5A"/>
<path d="M40.6 88.3H24.7C23 88.3 21.7 87 21.7 85.3V65.5C21.7 64.8 22 64.1 22.4 63.6L25 60.5C25.2 56.6 26.9 44.4 38.1 39.4C48.6 34.7 57.7 30.6 59.2 29.9L85 13.6C86.1 12.9 91.9 9.29999 106.1 9.29999H209.5C212.3 9.19999 217.8 10.3 219.5 15.6C221 20.3 227.9 50 228.2 51.2C228.3 51.4 228.3 51.6 228.3 51.9L228.4 80.6C228.4 81.6 227.9 82.6 227 83.1C226.8 83.2 222.3 86 213.7 86.9C212.1 87.1 210.6 85.9 210.4 84.2C210.2 82.6 211.4 81.1 213.1 80.9C217.6 80.4 220.7 79.4 222.4 78.7L222.3 52.2C219.8 41.5 214.9 20.9 213.8 17.4C213.1 15.1 209.9 15.2 209.7 15.2C209.7 15.2 209.6 15.2 209.5 15.2H106.1C93.2 15.2 88.5 18.4 88.4 18.4C88.3 18.4 88.3 18.5 88.3 18.5L62.3 35C62.2 35.1 62 35.1 61.9 35.2C61.8 35.2 52 39.6 40.6 44.7C31.1 49.2 31 61.5 31 61.6C31 62.3 30.8 63 30.3 63.6L27.7 66.6V82.3H40.6C42.3 82.3 43.6 83.6 43.6 85.3C43.6 87 42.3 88.3 40.6 88.3Z" fill="#474D5A"/>
<path d="M100.4 43.1H66.7C65 43.1 63.7 41.8 63.7 40.1C63.7 38.4 65 37.1 66.7 37.1H99.7L107.2 33H107.3C107.4 32.9 108.1 32.2 108.1 30.1V21C108.1 19.3 109.4 18 111.1 18C112.8 18 114.1 19.3 114.1 21V30C114.1 35.7 111.1 37.7 110.1 38.2L101.9 42.7C101.4 42.9 100.9 43.1 100.4 43.1Z" fill="#474D5A"/>
<path d="M198.1 40.7H127.4C124.9 40.7 122.7 39.8 121.1 38.2C118.3 35.4 118.3 31.5 118.3 31V21C118.3 19.3 119.6 18 121.3 18C123 18 124.3 19.3 124.3 21V31C124.3 32.1 124.7 34.6 127.5 34.6H198.2C198.3 34.6 205.3 34.5 207.8 29.6C208.5 28.1 210.4 27.5 211.8 28.3C213.3 29 213.9 30.9 213.1 32.3C208.9 40.6 198.6 40.7 198.1 40.7Z" fill="#474D5A"/>
<path d="M172.7 38.7C171 38.7 169.7 37.4 169.7 35.7V21C169.7 19.3 171 18 172.7 18C174.4 18 175.7 19.3 175.7 21V35.7C175.7 37.4 174.3 38.7 172.7 38.7Z" fill="#474D5A"/>
<path d="M41.1 59.3H30.2C28.5 59.3 27.2 58 27.2 56.3C27.2 54.6 28.5 53.3 30.2 53.3H39.2C40.6 50.7 44 46.5 51.1 44.5C52.7 44 54.4 45 54.8 46.6C55.3 48.2 54.3 49.9 52.7 50.3C45.5 52.3 44 57 43.9 57.2C43.6 58.5 42.4 59.3 41.1 59.3Z" fill="#474D5A"/>
<path d="M189 99.1C178 99.1 169 90.1 169 79.1C169 68.1 178 59.1 189 59.1C200 59.1 209 68.1 209 79.1C209 90.1 200.1 99.1 189 99.1ZM189 65.1C181.3 65.1 175 71.4 175 79.1C175 86.8 181.3 93.1 189 93.1C196.7 93.1 203 86.8 203 79.1C203 71.4 196.8 65.1 189 65.1Z" fill="#474D5A"/>
<path d="M189 89.1C183.5 89.1 179 84.6 179 79.1C179 73.6 183.5 69.1 189 69.1C194.5 69.1 199 73.6 199 79.1C199 84.6 194.6 89.1 189 89.1ZM189 75.1C186.8 75.1 185 76.9 185 79.1C185 81.3 186.8 83.1 189 83.1C191.2 83.1 193 81.3 193 79.1C193 76.9 191.3 75.1 189 75.1Z" fill="#474D5A"/>
<path d="M65.2 99.1C54.2 99.1 45.2 90.1 45.2 79.1C45.2 68.1 54.2 59.1 65.2 59.1C76.2 59.1 85.2 68.1 85.2 79.1C85.2 90.1 76.2 99.1 65.2 99.1ZM65.2 65.1C57.5 65.1 51.2 71.4 51.2 79.1C51.2 86.8 57.5 93.1 65.2 93.1C72.9 93.1 79.2 86.8 79.2 79.1C79.2 71.4 72.9 65.1 65.2 65.1Z" fill="#474D5A"/>
<path d="M65.2 89.1C59.7 89.1 55.2 84.6 55.2 79.1C55.2 73.6 59.7 69.1 65.2 69.1C70.7 69.1 75.2 73.6 75.2 79.1C75.2 84.6 70.7 89.1 65.2 89.1ZM65.2 75.1C63 75.1 61.2 76.9 61.2 79.1C61.2 81.3 63 83.1 65.2 83.1C67.4 83.1 69.2 81.3 69.2 79.1C69.2 76.9 67.4 75.1 65.2 75.1Z" fill="#474D5A"/>
</svg>
