<svg width="250" height="100" viewBox="0 0 250 100" fill="none" xmlns="http://www.w3.org/2000/svg">
<path d="M229.5 55C232.7 37.7 217.5 26.8 217.5 26.8L218.7 20.8C161.1 12.4 125.8 18.4 121 19.4C84.2 26.6 65.6 43.3 65.6 43.3C14.2 43.3 17.9 65 17.9 65L21 86.5H31.4L40.3 86.4C43 92.1 48.9 96.1 55.6 96.1C62.5 96.1 68.4 92 71.1 86.1L172.9 85.1C175.3 91.5 181.5 96.1 188.8 96.1C196.2 96.1 202.5 91.4 204.8 84.8L213.8 84.7L232.2 78.9V65.6C227.8 62.8 228.7 59.6 229.5 55Z" fill="white"/>
<path d="M164.3 89.5H80C78.3 89.5 77 88.2 77 86.5C77 84.8 78.3 83.5 80 83.5H164.2C165.9 83.5 167.2 84.8 167.2 86.5C167.2 88.2 165.9 89.5 164.3 89.5Z" fill="#474D5A"/>
<path d="M31.4 89.5H21C19.5 89.5 18.2 88.4 18 86.9L14.9 65.2C14.8 64.7 14 59.1 19 53.3C26.3 44.7 41.5 40.3 64.5 40.1C68.7 36.6 87.3 22.7 120.4 16.3C124.3 15.5 160.2 9.10003 219.1 17.7C219.9 17.8 220.6 18.3 221.1 18.9C221.6 19.6 221.8 20.4 221.6 21.2L220.8 25.5C224.9 29 235.4 39.8 232.5 55.5L232.4 56.2C231.6 60.7 231.6 61.6 233.8 63.1C234.6 63.7 235.2 64.6 235.2 65.6V78.9C235.2 80.2 234.4 81.4 233.1 81.8L214.7 87.6C213.1 88.1 211.4 87.2 210.9 85.6C210.4 84 211.3 82.3 212.9 81.8L229.2 76.7V67.1C224.9 63.5 225.8 59 226.5 55.1L226.6 54.4C229.4 39.3 216.3 29.6 215.8 29.1C214.9 28.4 214.4 27.2 214.6 26.1L215.2 23.1C159.1 15.3 125.3 21.4 121.6 22.1C86 29 67.8 45.1 67.6 45.3C67 45.8 66.3 46.1 65.6 46.1C38.9 46.1 28.1 52 23.8 56.9C20.5 60.7 20.9 64.1 20.9 64.3L23.6 83.5H31.4C33.1 83.5 34.4 84.8 34.4 86.5C34.4 88.2 33 89.5 31.4 89.5Z" fill="#474D5A"/>
<path d="M80 48.5C78.4 48.5 77 47.2 77 45.6C77 43.9 78.3 42.6 79.9 42.5C80.7 42.5 163.7 41.1 185.8 39.6C192.6 39.1 194.9 35.3 196.6 28.7C197 27.1 198.6 26.1 200.2 26.5C201.8 26.9 202.8 28.5 202.4 30.1C201.3 34.5 198.7 44.7 186.2 45.5C164.1 47.1 80.9 48.5 80 48.5C80.1 48.5 80.1 48.5 80 48.5Z" fill="#474D5A"/>
<path d="M136.1 47.4C135.9 47.4 135.7 47.4 135.5 47.3C133.9 47 132.8 45.4 133.1 43.8L136.5 26.4C136.8 24.8 138.4 23.7 140 24C141.6 24.3 142.7 25.9 142.4 27.5L139 44.9C138.8 46.4 137.5 47.4 136.1 47.4Z" fill="#474D5A"/>
<path d="M228 55.5C216.6 55.5 211.7 41.6 211.5 41C211.2 40.1 211.3 39.1 211.9 38.3C212.5 37.5 213.4 37 214.3 37H227.2C228.9 37 230.2 38.3 230.2 40C230.2 41.7 228.9 43 227.2 43H219C220.8 45.9 223.7 49.4 227.9 49.4C229.6 49.4 230.9 50.7 230.9 52.4C230.9 54.1 229.6 55.5 228 55.5Z" fill="#474D5A"/>
<path d="M18.7 68.2C17 68.2 15.7 66.9 15.7 65.2C15.7 63.5 17 62.2 18.7 62.2C31.4 62.2 37.1 55.2 37.3 54.9C38.3 53.6 40.2 53.4 41.5 54.4C42.8 55.4 43.1 57.3 42.1 58.6C41.8 58.9 34.6 68.2 18.7 68.2Z" fill="#474D5A"/>
<path d="M188.7 99.1C177.7 99.1 168.7 90.1 168.7 79.1C168.7 68.1 177.7 59.1 188.7 59.1C199.7 59.1 208.7 68.1 208.7 79.1C208.7 90.1 199.7 99.1 188.7 99.1ZM188.7 65.1C181 65.1 174.7 71.4 174.7 79.1C174.7 86.8 181 93.1 188.7 93.1C196.4 93.1 202.7 86.8 202.7 79.1C202.7 71.4 196.4 65.1 188.7 65.1Z" fill="#474D5A"/>
<path d="M188.7 89.1C183.2 89.1 178.7 84.6 178.7 79.1C178.7 73.6 183.2 69.1 188.7 69.1C194.2 69.1 198.7 73.6 198.7 79.1C198.7 84.6 194.2 89.1 188.7 89.1ZM188.7 75.1C186.5 75.1 184.7 76.9 184.7 79.1C184.7 81.3 186.5 83.1 188.7 83.1C190.9 83.1 192.7 81.3 192.7 79.1C192.7 76.9 190.9 75.1 188.7 75.1Z" fill="#474D5A"/>
<path d="M55.6 99.1C44.6 99.1 35.6 90.1 35.6 79.1C35.6 68.1 44.6 59.1 55.6 59.1C66.6 59.1 75.6 68.1 75.6 79.1C75.6 90.1 66.6 99.1 55.6 99.1ZM55.6 65.1C47.9 65.1 41.6 71.4 41.6 79.1C41.6 86.8 47.9 93.1 55.6 93.1C63.3 93.1 69.6 86.8 69.6 79.1C69.6 71.4 63.3 65.1 55.6 65.1Z" fill="#474D5A"/>
<path d="M55.6 89.1C50.1 89.1 45.6 84.6 45.6 79.1C45.6 73.6 50.1 69.1 55.6 69.1C61.1 69.1 65.6 73.6 65.6 79.1C65.6 84.6 61.1 89.1 55.6 89.1ZM55.6 75.1C53.4 75.1 51.6 76.9 51.6 79.1C51.6 81.3 53.4 83.1 55.6 83.1C57.8 83.1 59.6 81.3 59.6 79.1C59.6 76.9 57.8 75.1 55.6 75.1Z" fill="#474D5A"/>
</svg>
