<svg width="250" height="100" viewBox="0 0 250 100" fill="none" xmlns="http://www.w3.org/2000/svg">
<path d="M225.3 80.6L225.2 60.2C225.2 60.2 218 29.4 216.5 24.8C215 20.2 209.4 20.6 209.4 20.6C209.4 20.6 116.6 20 105.8 20C91.4 20 86.7 24.4 86.7 24.4L60.7 40.9C60.7 40.9 50.9 45.3 39.4 50.5C27.9 55.7 28 70 28 70L24.7 73.9C24.7 73.9 24.7 77.3 24.7 85.3H40.6H49.8C52.2 91.7 58.4 96.2 65.7 96.2C73 96.2 79.2 91.6 81.6 85.1L171.1 84.7C173.4 91.4 179.7 96.2 187.2 96.2C194.7 96.2 201.1 91.3 203.3 84.5H212.4C220.3 83.6 225.3 80.6 225.3 80.6Z" fill="white"/>
<path d="M161.9 88.3H90.1C88.4 88.3 87.1 87 87.1 85.3C87.1 83.6 88.4 82.3 90.1 82.3H161.9C163.6 82.3 164.9 83.6 164.9 85.3C164.9 87 163.6 88.3 161.9 88.3Z" fill="#474D5A"/>
<path d="M40.6 88.2H24.7C23 88.2 21.7 86.9 21.7 85.2V73.8C21.7 73.1 22 72.4 22.4 71.9L25 68.8C25.2 64.9 26.9 52.7 38.1 47.7C48.6 43 57.7 38.9 59.2 38.2L84.9 22C86.2 20.9 92 17.1 105.8 17.1C116.4 17.1 206.1 17.6 209.5 17.7C212.3 17.6 217.8 18.7 219.5 24C221 28.7 227.9 58.4 228.2 59.6C228.3 59.8 228.3 60 228.3 60.3L228.4 80.7C228.4 81.8 227.9 82.7 227 83.3C226.8 83.4 221.3 86.7 212.8 87.6C211.1 87.8 209.7 86.6 209.5 84.9C209.3 83.2 210.5 81.8 212.2 81.6C217 81.1 220.6 79.7 222.5 78.9L222.4 60.7C219.9 50 215 29.4 213.9 25.9C213.2 23.6 210 23.7 209.8 23.7C209.7 23.7 209.7 23.7 209.6 23.7C208.7 23.7 116.6 23.1 105.9 23.1C93.2 23.1 88.8 26.7 88.7 26.7C88.6 26.8 88.5 26.9 88.3 27L62.3 43.5C62.2 43.6 62 43.6 61.9 43.7C61.8 43.7 52 48.1 40.6 53.2C31 57.5 31 69.8 31 69.9C31 70.6 30.8 71.3 30.3 71.9L27.7 74.9V82.2H40.6C42.3 82.2 43.6 83.5 43.6 85.2C43.6 86.9 42.2 88.2 40.6 88.2Z" fill="#474D5A"/>
<path d="M99.4 51.3H64.1C62.4 51.3 61.1 50 61.1 48.3C61.1 46.6 62.4 45.3 64.1 45.3H98.6L105.7 41.2L105.8 41.1C105.9 41 106.6 40.3 106.6 38.2V32.7H99.2C97.5 32.7 96.2 31.4 96.2 29.7C96.2 28 97.5 26.7 99.2 26.7H109.6C111.3 26.7 112.6 28 112.6 29.7V38.2C112.6 43.8 109.7 45.8 108.6 46.4L100.8 50.8C100.5 51.2 100 51.3 99.4 51.3Z" fill="#474D5A"/>
<path d="M119.5 79.2C117.8 79.2 116.5 77.9 116.5 76.2V29.8C116.5 28.1 117.8 26.8 119.5 26.8C121.2 26.8 122.5 28.1 122.5 29.8V76.2C122.5 77.8 121.1 79.2 119.5 79.2Z" fill="#474D5A"/>
<path d="M40.1 67.7H30.7C29 67.7 27.7 66.4 27.7 64.7C27.7 63 29 61.7 30.7 61.7H38.4C40 59 43.8 54 50 51.9C51.6 51.4 53.3 52.2 53.8 53.8C54.3 55.4 53.5 57.1 51.9 57.6C45.9 59.7 42.8 65.9 42.8 66C42.3 67 41.3 67.7 40.1 67.7Z" fill="#474D5A"/>
<path d="M209.3 48.3H147.6C145.9 48.3 144.6 47 144.6 45.3C144.6 43.6 145.9 42.3 147.6 42.3H209.3C211 42.3 212.3 43.6 212.3 45.3C212.3 47 211 48.3 209.3 48.3Z" fill="#474D5A"/>
<path d="M187.1 99.1C176.1 99.1 167.1 90.1 167.1 79.1C167.1 68.1 176.1 59.1 187.1 59.1C198.1 59.1 207.1 68.1 207.1 79.1C207.1 90.1 198.1 99.1 187.1 99.1ZM187.1 65.1C179.4 65.1 173.1 71.4 173.1 79.1C173.1 86.8 179.4 93.1 187.1 93.1C194.8 93.1 201.1 86.8 201.1 79.1C201.1 71.4 194.8 65.1 187.1 65.1Z" fill="#474D5A"/>
<path d="M187.1 89.1C181.6 89.1 177.1 84.6 177.1 79.1C177.1 73.6 181.6 69.1 187.1 69.1C192.6 69.1 197.1 73.6 197.1 79.1C197.1 84.6 192.6 89.1 187.1 89.1ZM187.1 75.1C184.9 75.1 183.1 76.9 183.1 79.1C183.1 81.3 184.9 83.1 187.1 83.1C189.3 83.1 191.1 81.3 191.1 79.1C191.1 76.9 189.3 75.1 187.1 75.1Z" fill="#474D5A"/>
<path d="M65.6 99.1C54.6 99.1 45.6 90.1 45.6 79.1C45.6 68.1 54.6 59.1 65.6 59.1C76.6 59.1 85.6 68.1 85.6 79.1C85.6 90.1 76.7 99.1 65.6 99.1ZM65.6 65.1C57.9 65.1 51.6 71.4 51.6 79.1C51.6 86.8 57.9 93.1 65.6 93.1C73.3 93.1 79.6 86.8 79.6 79.1C79.6 71.4 73.4 65.1 65.6 65.1Z" fill="#474D5A"/>
<path d="M65.6 89.1C60.1 89.1 55.6 84.6 55.6 79.1C55.6 73.6 60.1 69.1 65.6 69.1C71.1 69.1 75.6 73.6 75.6 79.1C75.6 84.6 71.2 89.1 65.6 89.1ZM65.6 75.1C63.4 75.1 61.6 76.9 61.6 79.1C61.6 81.3 63.4 83.1 65.6 83.1C67.8 83.1 69.6 81.3 69.6 79.1C69.6 76.9 67.8 75.1 65.6 75.1Z" fill="#474D5A"/>
</svg>
