<svg width="250" height="100" viewBox="0 0 250 100" fill="none" xmlns="http://www.w3.org/2000/svg">
<path d="M240.3 4H15V10V34.7L10.9 41.4V87.8H53.4H63.6C66 92.6 70.9 95.9 76.6 95.9C82.3 95.9 87.3 92.6 89.6 87.8L177.8 87.9C180.2 92.7 185.1 96 190.8 96C196.5 96 201.4 92.7 203.8 87.9H212.6H219.5L245.9 82.3V33.6L240.3 4Z" fill="white"/>
<path d="M219.5 90.9H212.6C210.9 90.9 209.6 89.6 209.6 87.9C209.6 86.2 210.9 84.9 212.6 84.9H219.2L242.9 79.9V33.9L238 7H18.2V34.7C18.2 35.3 18 35.8 17.8 36.3L14.1 42.3V84.9H53.6C55.3 84.9 56.6 86.2 56.6 87.9C56.6 89.6 55.3 90.9 53.6 90.9H11C9.3 90.9 8 89.6 8 87.9V41.4C8 40.8 8.2 40.3 8.4 39.8L12.1 33.8V4C12.1 2.3 13.4 1 15.1 1H240.4C241.8 1 243.1 2 243.4 3.5L248.9 33.1C248.9 33.3 248.9 33.5 248.9 33.6V82.3C248.9 83.7 247.9 84.9 246.5 85.2L220.1 90.8C220 90.9 219.7 90.9 219.5 90.9Z" fill="#474D5A"/>
<path d="M169 90.8H98.1C96.4 90.8 95.1 89.5 95.1 87.8C95.1 86.1 96.4 84.8 98.1 84.8H169C170.7 84.8 172 86.1 172 87.8C172 89.5 170.6 90.8 169 90.8Z" fill="#474D5A"/>
<path d="M4.09998 22.9C2.39998 22.9 1.09998 21.6 1.09998 19.9V14.5C1.09998 9 5.39998 7 8.39998 7H15.2C16.9 7 18.2 8.3 18.2 10C18.2 11.7 16.9 13 15.2 13H8.39998C7.19998 13.1 7.19998 14 7.19998 14.6V20C7.09998 21.6 5.79998 22.9 4.09998 22.9Z" fill="#474D5A"/>
<path d="M233.7 19H24C22.3 19 21 17.7 21 16C21 14.3 22.3 13 24 13H233.6C235.3 13 236.6 14.3 236.6 16C236.6 17.7 235.3 19 233.7 19Z" fill="#474D5A"/>
<path d="M207.6 40.5H50C48.3 40.5 47 39.2 47 37.5C47 35.8 48.3 34.5 50 34.5H207.6C209.3 34.5 210.6 35.8 210.6 37.5C210.6 39.2 209.3 40.5 207.6 40.5Z" fill="#474D5A"/>
<path d="M32.9 81.9C31.2 81.9 29.9 80.6 29.9 78.9V17.1C29.9 15.4 31.2 14.1 32.9 14.1C34.6 14.1 35.9 15.4 35.9 17.1V78.9C35.9 80.5 34.5 81.9 32.9 81.9Z" fill="#474D5A"/>
<path d="M49.5 81.9C47.8 81.9 46.5 80.6 46.5 78.9V17.1C46.5 15.4 47.8 14.1 49.5 14.1C51.2 14.1 52.5 15.4 52.5 17.1V78.9C52.5 80.5 51.2 81.9 49.5 81.9Z" fill="#474D5A"/>
<path d="M216.5 81.9C214.8 81.9 213.5 80.6 213.5 78.9V17.1C213.5 15.4 214.8 14.1 216.5 14.1C218.2 14.1 219.5 15.4 219.5 17.1V78.9C219.5 80.6 218.1 81.9 216.5 81.9Z" fill="#474D5A"/>
<path d="M237 40.5H218.3C216.6 40.5 215.3 39.2 215.3 37.5C215.3 35.8 216.6 34.5 218.3 34.5H237C238.7 34.5 240 35.8 240 37.5C240 39.2 238.7 40.5 237 40.5Z" fill="#474D5A"/>
<path d="M23.9 71.4H12.5C10.8 71.4 9.5 70.1 9.5 68.4C9.5 66.7 10.8 65.4 12.5 65.4H23.9C25.6 65.4 26.9 66.7 26.9 68.4C26.9 70.1 25.6 71.4 23.9 71.4Z" fill="#474D5A"/>
<path d="M40.6 71.4H34.5C32.8 71.4 31.5 70.1 31.5 68.4C31.5 66.7 32.8 65.4 34.5 65.4H40.6C42.3 65.4 43.6 66.7 43.6 68.4C43.6 70.1 42.3 71.4 40.6 71.4Z" fill="#474D5A"/>
<path d="M190.9 99C181.3 99 173.4 91.1 173.4 81.5C173.4 71.9 181.3 64 190.9 64C200.5 64 208.4 71.9 208.4 81.5C208.4 91.1 200.6 99 190.9 99ZM190.9 70C184.6 70 179.4 75.2 179.4 81.5C179.4 87.8 184.6 93 190.9 93C197.2 93 202.4 87.8 202.4 81.5C202.4 75.2 197.3 70 190.9 70Z" fill="#474D5A"/>
<path d="M190.9 89C186.8 89 183.4 85.6 183.4 81.5C183.4 77.4 186.8 74 190.9 74C195 74 198.4 77.4 198.4 81.5C198.4 85.6 195 89 190.9 89ZM190.9 80C190.1 80 189.4 80.7 189.4 81.5C189.4 82.3 190.1 83 190.9 83C191.7 83 192.4 82.3 192.4 81.5C192.4 80.7 191.7 80 190.9 80Z" fill="#474D5A"/>
<path d="M76.6999 99C67.0999 99 59.2 91.1 59.2 81.5C59.2 71.9 67.0999 64 76.6999 64C86.2999 64 94.1999 71.9 94.1999 81.5C94.1999 91.1 86.2999 99 76.6999 99ZM76.6999 70C70.3999 70 65.1999 75.2 65.1999 81.5C65.1999 87.8 70.3999 93 76.6999 93C82.9999 93 88.1999 87.8 88.1999 81.5C88.1999 75.2 82.9999 70 76.6999 70Z" fill="#474D5A"/>
<path d="M76.7 89C72.6 89 69.2 85.6 69.2 81.5C69.2 77.4 72.6 74 76.7 74C80.8 74 84.2 77.4 84.2 81.5C84.2 85.6 80.8 89 76.7 89ZM76.7 80C75.9 80 75.2 80.7 75.2 81.5C75.2 82.3 75.9 83 76.7 83C77.5 83 78.2 82.3 78.2 81.5C78.2 80.7 77.5 80 76.7 80Z" fill="#474D5A"/>
</svg>
